/* XPM */
static char *locked[] = {
/* columns rows colors chars-per-pixel */
"22 22 4 1",
"  c #000000",
". c #030303",
"X c #040404",
"o c None",
/* pixels */
"oooooooooooooooooooooo",
"oooooooooooooooooooooo",
"ooooooooo   Xooooooooo",
"oooooooo      oooooooo",
"oooooooXooooooXooooooo",
"ooooooo oooooo ooooooo",
"oooooooooooooooooooooo",
"oooooooooooooooooooooo",
"oooooX oo    oo Xooooo",
"ooooo oooooooooooooooo",
"oooooooooooooooooooooo",
"oooooooooooooooooooooo",
"oooooooooooooooooooooo",
"oooooooooooooooooooooo",
"oooooooooooooooooooooo",
"oooooooooooooooooooooo",
"oooooooooooooooooooooo",
"oooooooooooooooooooooo",
"oooooooooooooooooooooo",
"oooooooooooooooooooooo",
"oooooooooooooooooooooo",
"oooooooooooooooooooooo"
};
