/* XPM */
static char *locked[] = {
/* columns rows colors chars-per-pixel */
"48 48 186 2",
"   c #000000",
".  c #060606",
"X  c #252525",
"o  c #272727",
"O  c #292929",
"+  c #2A2A2A",
"@  c #2C2C2C",
"#  c #2E2E2E",
"$  c #2F2F2F",
"%  c #323232",
"&  c #343434",
"*  c #353535",
"=  c #363636",
"-  c #373737",
";  c #383838",
":  c #393939",
">  c #3B3B3B",
",  c #3C3C3C",
"<  c #3D3D3D",
"1  c #3E3E3E",
"2  c #3F3F3F",
"3  c #404040",
"4  c #414141",
"5  c #424242",
"6  c #434343",
"7  c #444444",
"8  c #454545",
"9  c #464646",
"0  c #474747",
"q  c #484848",
"w  c #494949",
"e  c #4A4A4A",
"r  c #4B4B4B",
"t  c #4C4C4C",
"y  c #4D4D4D",
"u  c #4E4E4E",
"i  c #4F4F4F",
"p  c #505050",
"a  c #515151",
"s  c #525252",
"d  c #535353",
"f  c #545454",
"g  c #555555",
"h  c #565656",
"j  c #575757",
"k  c #585858",
"l  c #595959",
"z  c #5A5A5A",
"x  c #5B5B5B",
"c  c #5C5C5C",
"v  c #5D5D5D",
"b  c #5E5E5E",
"n  c #5F5F5F",
"m  c #606060",
"M  c #616161",
"N  c #626262",
"B  c #636363",
"V  c #646464",
"C  c #656565",
"Z  c #666666",
"A  c #676767",
"S  c #686868",
"D  c #6B6B6B",
"F  c #6D6D6D",
"G  c #787878",
"H  c #797979",
"J  c #7D7D7D",
"K  c #7E7E7E",
"L  c #7F7F7F",
"P  c #808080",
"I  c #818181",
"U  c #828282",
"Y  c #838383",
"T  c #848484",
"R  c #858585",
"E  c #868686",
"W  c #878787",
"Q  c #888888",
"!  c #898989",
"~  c #8A8A8A",
"^  c #8B8B8B",
"/  c #8C8C8C",
"(  c #8D8D8D",
")  c #8E8E8E",
"_  c #8F8F8F",
"`  c #909090",
"'  c #919191",
"]  c #929292",
"[  c #939393",
"{  c #949494",
"}  c #959595",
"|  c #969696",
" . c #979797",
".. c #989898",
"X. c #999999",
"o. c #9A9A9A",
"O. c #9B9B9B",
"+. c #9C9C9C",
"@. c #9D9D9D",
"#. c #9E9E9E",
"$. c #9F9F9F",
"%. c #A0A0A0",
"&. c #A1A1A1",
"*. c #A2A2A2",
"=. c #A3A3A3",
"-. c #A4A4A4",
";. c #A5A5A5",
":. c #A6A6A6",
">. c #A7A7A7",
",. c #A8A8A8",
"<. c #A9A9A9",
"1. c #AAAAAA",
"2. c #ABABAB",
"3. c #ACACAC",
"4. c #ADADAD",
"5. c #AEAEAE",
"6. c #AFAFAF",
"7. c #B0B0B0",
"8. c #B1B1B1",
"9. c #B2B2B2",
"0. c #B3B3B3",
"q. c #B4B4B4",
"w. c #B5B5B5",
"e. c #B6B6B6",
"r. c #B7B7B7",
"t. c #B8B8B8",
"y. c #B9B9B9",
"u. c #BABABA",
"i. c #BBBBBB",
"p. c #BCBCBC",
"a. c #BDBDBD",
"s. c #BEBEBE",
"d. c #BFBFBF",
"f. c #C0C0C0",
"g. c #C1C1C1",
"h. c #C2C2C2",
"j. c #C3C3C3",
"k. c #C4C4C4",
"l. c #C5C5C5",
"z. c #C6C6C6",
"x. c #C7C7C7",
"c. c #C8C8C8",
"v. c #C9C9C9",
"b. c #CACACA",
"n. c #CBCBCB",
"m. c #CCCCCC",
"M. c #CDCDCD",
"N. c #CECECE",
"B. c #CFCFCF",
"V. c #D0D0D0",
"C. c #D1D1D1",
"Z. c #D2D2D2",
"A. c #D3D3D3",
"S. c #D4D4D4",
"D. c #D5D5D5",
"F. c #D6D6D6",
"G. c #D7D7D7",
"H. c #D8D8D8",
"J. c #D9D9D9",
"K. c #DADADA",
"L. c #DBDBDB",
"P. c #DCDCDC",
"I. c #DDDDDD",
"U. c #DEDEDE",
"Y. c #DFDFDF",
"T. c #E0E0E0",
"R. c #E1E1E1",
"E. c #E2E2E2",
"W. c #E3E3E3",
"Q. c #E4E4E4",
"!. c #E5E5E5",
"~. c #E6E6E6",
"^. c #E7E7E7",
"/. c #E8E8E8",
"(. c #E9E9E9",
"). c #EAEAEA",
"_. c #EBEBEB",
"`. c #ECECEC",
"'. c #EDEDED",
"]. c #EEEEEE",
"[. c #EFEFEF",
"{. c #F0F0F0",
"}. c #F1F1F1",
"|. c #F2F2F2",
" X c #F3F3F3",
".X c None",
/* pixels */
".X.X.X.X.X.X.X.X.X.X.X.X.X.X.X.X.X.X.X.X.X.X.X.X.X.X.X.X.X.X.X.X.X.X.X.X.X.X.X.X.X.X.X.X.X.X.X.X",
".X.X.X.X.X.X.X.X.X.X.X.X.X.X.X.X.X.X.X.X.X.X.X.X.X.X.X.X.X.X.X.X.X.X.X.X.X.X.X.X.X.X.X.X.X.X.X.X",
".X.X.X.X.X.X.X.X.X.X.X.X.X.X.X.X.X.X.X.X.X.X.X.X.X.X.X.X.X.X.X.X.X.X.X.X.X.X.X.X.X.X.X.X.X.X.X.X",
".X.X.X.Xv.L.!.!.Y.!.Y.L.!.Y.Y.Y.!.Y.D.L.D.Z.Z.B.B.B.B.v.v.v.v.Z.B.x.B.B.v.Z.Z.B.L.D.Z.f..X.X.X.X",
".X.X.Xf.!.Y.W.L.Y.Z.L.L.Z.D.D.B.D.L.D.B.x.d.u.r.r.r.r.u.u.d.d.u.u.f.d.u.f.d.f.B.v.Z.B.D.8..X.X.X",
".X.X.XY.!.W.L.W.D.L.D.D.L.Z.D.L.Z.B.Z.D.B.f.d.r.r.r.u.d.d.r.r.u.d.u.r.f.u.x.x.v.Z.v.D.v.B..X.X.X",
".X.X.X].!.W.W.L.W.D.L.D.B.D.B.B.D.Z.B.v.v.f.f.u.u.u.r.8.8.r.u.u.8.u.u.r.x.d.v.v.v.Z.v.Z.L..X.X.X",
".X.X.X}.(.(.W.!.L.W.D.D.D.B.D.Z.B.Z.Z.v.x.d.r.6.6.6.8.8.r.u.8.8.u.r.8.d.u.x.x.v.B.v.Z.B.D..X.X.X",
".X.X.X(.].!.(.W.!.L.Y.D.D.D.B.Z.Z.v.B.B.B.f.u.6.8.6.8.8.r.6.8.r.8.6.u.r.x.f.v.v.B.B.B.B.L..X.X.X",
".X.X.X].(.].].].W.!.L.Y.Z.Z.Z.v.B.Z.B.v.x.f.u.8.8.8.8.6.6.6.8.6.6.r.r.x.f.v.x.B.v.B.v.Z.Z..X.X.X",
".X.X.X].(.].(.].].!.!.Y.L.Z.B.Z.v.v.B.v.G 4 O X X X 1 D 6.6.1.6.6.8.f.d.B.x.v.v.B.v.B.v.D..X.X.X",
".X.X.X(.(.(.].].].].!.W.Y.L.Z.v.B.B.x.r % 1 1 1 1 1 - # 4 >.6.1.6.d.u.v.f.B.x.B.x.v.x.v.Z..X.X.X",
".X.X.X].!.].(.].].].].(.!.Y.D.Z.x.x.G ; 7 7 4 4 1 1 1 1 % Z >.6.r.u.x.d.v.x.v.x.v.x.x.v.B..X.X.X",
".X.X.X].!.(.].(.].].].].].!.Y.Z.B.x.r 7 7 m %.f.f.O.z 1 4 1 >.8.u.f.d.v.f.x.v.x.v.x.v.f.B..X.X.X",
".X.X.X].(.(.(.(.(.].].}.].].!.Y.Z.v.- 7 7 { 8.>.%.%.U 1 1 % 6.8.f.d.v.f.x.x.f.v.d.x.f.x.Z..X.X.X",
".X.X.X(.(.(.(.].].].].].}.}.}.!.Y.Z.; r 1 f.r.%.%.%.>.; 4 - r.d.d.x.f.f.x.d.x.f.f.x.x.v.Z..X.X.X",
".X.X.X(.!.].(.(.].].].].].}.}.}.!.Y.; r ; f.r.%.#.#.#.- 4 ; u.d.f.f.f.f.d.f.x.f.B.x.x.x.Z..X.X.X",
".X.X.X].!.(.(.(.(.(.].].}.}.}.}.}.(.4 u 1 f.u.%.O.O.O.; 7 1 d.f.d.d.f.d.f.v.f.v.x.v.B.B.D..X.X.X",
".X.X.X(.!.!.].(.(.}.].].}.].].}.}.}.7 a 1 d.u.#.{ O.O.; u ; u.d.d.f.f.f.v.x.v.D.B.B.Z.Z.L..X.X.X",
".X.X.X(.(.(.(.(.(.].].].].}.}.O.1 - 7 z 4 # # # O O O 1 u 1 # - K x.v.B.D.Z.D.D.L.Y.Y.L.W..X.X.X",
".X.X.X(.(.!.(.].(.].].].].}.}.7 z z c z z h u r 7 r u u u a a a 1 Z.L.Y.Y.W.W.W.Y.Y.Y.W.W..X.X.X",
".X.X.X!.(.!.(.(.].(.].].].].}.r z c c c c c h u r u a h a h z h r !.!.(.!.(.(.(.(.(.(.!.(..X.X.X",
".X.X.X!.(.(.(.(.].(.].].].].}.r c m c c c c m z a z c c c c c c r ].].].].].].(.(.(.!.(.(..X.X.X",
".X.X.X(.!.(.!.(.(.(.].(.].}.].u m c m m m c z a c c m m m m m c u }.].].].(.(.(.(.!.!.!.!..X.X.X",
".X.X.X!.!.!.!.(.!.!.(.!.!.!.!.r c c z h h a a a h c m Z m m m m u ].].].(.(.(.(.(.!.W.W.!..X.X.X",
".X.X.XW.Y.L.L.Y.L.L.Y.L.D.D.v.r z h h h h a h a a z c Z m Z Z m u ].].].(.].(.(.(.!.!.W.!..X.X.X",
".X.X.XL.L.D.D.Z.B.B.v.x.x.d.r.7 h z h a a h h a a h z c m Z Z m a ].].(.(.(.(.!.!.!.W.Y.!..X.X.X",
".X.X.XZ.x.f.v.x.f.d.r.u.r.6.6.7 z h h h h z z a a z z z m Z Z Z a (.].].(.(.(.!.!.!.W.W.W..X.X.X",
".X.X.Xv.f.d.u.r.r.r.6.6.1.1.1.7 h h h h z z h a a z z z c m D Z a ].].(.(.!.!.!.W.W.Y.Y.Y..X.X.X",
".X.X.Xd.8.8.8.8.6.>.1.1.1.1.%.r h h h z z c z a h z z c c m m Z a ].(.(.(.(.!.!.W.W.Y.Y.W..X.X.X",
".X.X.Xu.8.6.1.1.>.1.1.>.>.O.O.7 z z z c z z h h h z c c c c m Z a (.].(.(.!.W.W.W.W.Y.Y.Y..X.X.X",
".X.X.X8.>.>.>.>.>.>.%.%.{ O.{ 7 z c c c c c z h h z c c m c m m u Y.!.!.(.!.W.W.Y.Y.Y.L.Y..X.X.X",
".X.X.X6.%.>.%.>.>.#.#.{ O.] { a c c m m m c z h z z c m m m c m z v.L.W.!.W.!.W.W.Y.L.Y.L..X.X.X",
".X.X.X1.>.%.%.%.#.O.{ { ] ] ] U Z c m c m c z z z z m c c c m D ( d.v.Z.Y.!.W.Y.Y.Y.L.Y.L..X.X.X",
".X.X.X1.%.%.#.#.{ ] { { ] ] { #.r.d.d.d.d.r.>.>.>.6.u.d.d.d.d.u.6.6.d.f.Z.L.W.Y.L.L.L.D.L..X.X.X",
".X.X.X>.#.O.{ ] { ] ] ] ] ] ] #.#.O.#.#.O.( U E U E { #.#.#.O.#.#.1.6.d.f.B.Z.Y.Y.L.D.D.L..X.X.X",
".X.X.X>.{ { ] ] ] ] ] ] ( ] O.O.O.#.#.O.{ ! E E E E ] { #.#.#.O.#.%.>.6.u.d.v.Z.L.L.D.L.D..X.X.X",
".X.X.X#.] { ] ] ( ( ] ( ] { { O.#.O.O.O.{ E U U U U ( O.O.O.#.#.O.O.>.>.6.r.d.v.v.D.D.Z.D..X.X.X",
".X.X.XO.{ ( ] ( ] ( ( ] ] O.#.{ O.{ #.{ ] U K U K K ! ] O.O.O.{ O.{ O.%.%.8.8.u.x.x.Z.Z.D..X.X.X",
".X.X.X%.! ] ( ( ( ( ( ( { { { O.O.{ { ] ! E U U U E E ] ] { { O.{ O.{ O.%.%.6.8.r.f.f.v.Z..X.X.X",
".X.X.X! ] ! ] ! ( ( ( ] { O.{ { { O.O.{ ( U U U U U E ] { { { { { ] { O.{ >.#.1.8.8.f.u.6..X.X.X",
".X.X.Xm { ] E ] ! ( ] ( { { { { { { ] ( E K K K K K K ! { { O.] ] O.] ] O.O.%.%.1.8.6.f.D .X.X.X",
".X.X.X1 D ! #.] O.O.O.#.%.%.>.%.>.#.%.#.O.{ { O.{ O.O.#.#.#.%.>.%.#.>.%.O.>.>.>.6.6.%.F 1 .X.X.X",
".X.X.X# 1 r a h h z z z z z c c c m c c c m m Z m m m m m c c c c z z z z h h h a a r 1 % .X.X.X",
".X.X.X. % 1 4 7 7 r 7 r r r r r u u r u a u u a a u a u u u u u r r r r r r 7 r 7 4 1 # . .X.X.X",
".X.X.X.X.X                                                                            .X.X.X.X.X",
".X.X.X.X.X.X.X.X.X.X.X.X.X.X.X.X.X.X.X.X.X.X.X.X.X.X.X.X.X.X.X.X.X.X.X.X.X.X.X.X.X.X.X.X.X.X.X.X",
".X.X.X.X.X.X.X.X.X.X.X.X.X.X.X.X.X.X.X.X.X.X.X.X.X.X.X.X.X.X.X.X.X.X.X.X.X.X.X.X.X.X.X.X.X.X.X.X"
};
