/* XPM */
static char *locked[] = {
/* columns rows colors chars-per-pixel */
"32 32 167 2",
"   c #000000",
".  c #242424",
"X  c #2F2F2F",
"o  c #323232",
"O  c #333333",
"+  c #343434",
"@  c #3A3A3A",
"#  c #3B3B3B",
"$  c #3C3C3C",
"%  c #3E3E3E",
"&  c #3F3F3F",
"*  c #404040",
"=  c #414141",
"-  c #424242",
";  c #434343",
":  c #444444",
">  c #454545",
",  c #464646",
"<  c #474747",
"1  c #494949",
"2  c #4B4B4B",
"3  c #4C4C4C",
"4  c #4D4D4D",
"5  c #4E4E4E",
"6  c #4F4F4F",
"7  c #505050",
"8  c #515151",
"9  c #525252",
"0  c #535353",
"q  c #545454",
"w  c #555555",
"e  c #565656",
"r  c #575757",
"t  c #585858",
"y  c #595959",
"u  c #5A5A5A",
"i  c #5B5B5B",
"p  c #5C5C5C",
"a  c #5D5D5D",
"s  c #5E5E5E",
"d  c #5F5F5F",
"f  c #606060",
"g  c #616161",
"h  c #626262",
"j  c #636363",
"k  c #646464",
"l  c #666666",
"z  c #6F6F6F",
"x  c #717171",
"c  c #737373",
"v  c #757575",
"b  c #797979",
"n  c #7B7B7B",
"m  c #7E7E7E",
"M  c #7F7F7F",
"N  c #808080",
"B  c #818181",
"V  c #828282",
"C  c #838383",
"Z  c #848484",
"A  c #858585",
"S  c #868686",
"D  c #878787",
"F  c #888888",
"G  c #898989",
"H  c #8A8A8A",
"J  c #8B8B8B",
"K  c #8C8C8C",
"L  c #8D8D8D",
"P  c #8E8E8E",
"I  c #8F8F8F",
"U  c #909090",
"Y  c #919191",
"T  c #929292",
"R  c #939393",
"E  c #949494",
"W  c #959595",
"Q  c #969696",
"!  c #979797",
"~  c #989898",
"^  c #999999",
"/  c #9A9A9A",
"(  c #9B9B9B",
")  c #9C9C9C",
"_  c #9D9D9D",
"`  c #9F9F9F",
"'  c #A0A0A0",
"]  c #A1A1A1",
"[  c #A2A2A2",
"{  c #A3A3A3",
"}  c #A4A4A4",
"|  c #A6A6A6",
" . c #A7A7A7",
".. c #A8A8A8",
"X. c #A9A9A9",
"o. c #AAAAAA",
"O. c #ABABAB",
"+. c #ACACAC",
"@. c #AEAEAE",
"#. c #AFAFAF",
"$. c #B0B0B0",
"%. c #B1B1B1",
"&. c #B2B2B2",
"*. c #B3B3B3",
"=. c #B4B4B4",
"-. c #B5B5B5",
";. c #B6B6B6",
":. c #B7B7B7",
">. c #B8B8B8",
",. c #B9B9B9",
"<. c #BABABA",
"1. c #BBBBBB",
"2. c #BCBCBC",
"3. c #BDBDBD",
"4. c #BEBEBE",
"5. c #BFBFBF",
"6. c #C0C0C0",
"7. c #C1C1C1",
"8. c #C2C2C2",
"9. c #C3C3C3",
"0. c #C4C4C4",
"q. c #C5C5C5",
"w. c #C6C6C6",
"e. c #C7C7C7",
"r. c #C8C8C8",
"t. c #C9C9C9",
"y. c #CACACA",
"u. c #CBCBCB",
"i. c #CCCCCC",
"p. c #CDCDCD",
"a. c #CECECE",
"s. c #CFCFCF",
"d. c #D0D0D0",
"f. c #D1D1D1",
"g. c #D2D2D2",
"h. c #D3D3D3",
"j. c #D4D4D4",
"k. c #D5D5D5",
"l. c #D6D6D6",
"z. c #D7D7D7",
"x. c #D8D8D8",
"c. c #D9D9D9",
"v. c #DADADA",
"b. c #DBDBDB",
"n. c #DCDCDC",
"m. c #DDDDDD",
"M. c #DEDEDE",
"N. c #DFDFDF",
"B. c #E0E0E0",
"V. c #E1E1E1",
"C. c #E2E2E2",
"Z. c #E3E3E3",
"A. c #E4E4E4",
"S. c #E5E5E5",
"D. c #E6E6E6",
"F. c #E7E7E7",
"G. c #E8E8E8",
"H. c #E9E9E9",
"J. c #EAEAEA",
"K. c #EBEBEB",
"L. c #ECECEC",
"P. c #EDEDED",
"I. c #EEEEEE",
"U. c #EFEFEF",
"Y. c #F0F0F0",
"T. c #F1F1F1",
"R. c None",
/* pixels */
"R.R.R.R.R.R.R.R.R.R.R.R.R.R.R.R.R.R.R.R.R.R.R.R.R.R.R.R.R.R.R.R.",
"R.R.R.R.R.R.R.R.R.R.R.R.R.R.R.R.R.R.R.R.R.R.R.R.R.R.R.R.R.R.R.R.",
"R.R.R.c.S.B.B.n.c.n.n.c.c.h.t.w.w.t.w.t.w.w.w.w.t.s.s.h.s.R.R.R.",
"R.R.c.S.n.n.c.l.l.l.l.l.h.t.7.,.,.,.,.,.5.5.,.5.5.7.t.s.h.t.R.R.",
"R.R.U.S.S.B.c.l.h.h.h.h.s.t.7.;.;.;.;.;.;.,.;.,.7.w.t.s.s.l.R.R.",
"R.R.G.G.G.B.n.c.h.s.s.s.s.t.5.*.*.*.*.*.*.*.;.,.w.t.t.h.s.h.R.R.",
"R.R.G.U.U.G.S.n.l.h.s.s.s.w.X.B m ( @.@.@.@.;.5.w.t.s.t.t.h.R.R.",
"R.R.U.G.G.U.G.S.n.h.t.t.,.7 O O O X 2 ( X.@.,.w.w.t.t.t.s.s.R.R.",
"R.R.U.G.G.U.U.G.S.c.s.t.x ; , x z ; % d  .*.5.7.w.w.w.w.w.s.R.R.",
"R.R.G.G.U.G.U.U.Y.S.l.s.; , ` @. .L ; @ @.5.7.w.w.w.w.w.t.t.R.R.",
"R.R.G.G.G.U.U.U.Y.Y.S.l.% ; 5. .` ] @ @ ,.5.7.w.7.w.7.w.w.s.R.R.",
"R.R.U.G.G.U.G.U.Y.T.Y.G.; ; 5. .( ( % % 5.7.5.5.7.w.t.t.t.l.R.R.",
"R.R.G.G.G.U.U.U.Y.Y.n.@.2 , L B v x % ; J @.7.w.t.s.h.l.l.n.R.R.",
"R.R.G.G.G.G.G.U.Y.Y.3 3 e e , ; % ; 3 3 , , h.l.n.n.n.B.B.B.R.R.",
"R.R.S.S.G.G.U.U.Y.Y.7 d d i i 7 2 7 e i i 3 G.G.G.U.U.S.G.G.R.R.",
"R.R.S.G.G.U.G.U.Y.Y.7 d d d d e i d d d f 7 Y.U.U.G.G.G.S.S.R.R.",
"R.R.S.S.S.B.S.B.S.n.7 i i e e 7 e f f f f e U.G.U.G.G.S.S.S.R.R.",
"R.R.c.l.c.h.h.s.w.7.3 e e 7 e 7 7 i f k f e U.U.G.G.G.G.S.B.R.R.",
"R.R.t.w.w.5.,.;.*.@.3 e e e i 7 7 i d f l i U.U.G.G.G.S.S.B.R.R.",
"R.R.5.;.*.*.@.X.X. .2 e e i i 7 e i i f f i G.G.G.G.S.B.B.B.R.R.",
"R.R.;.X. . . . .` ( 2 e e i i e e d i i d e S.G.G.S.S.B.n.n.R.R.",
"R.R.X. . .] ] ( E E 3 d d d i e e i d d d i l.B.S.S.B.B.n.n.R.R.",
"R.R. .] ] ( E R R R J B S S m m m B S S S R ,.s.n.B.B.n.n.n.R.R.",
"R.R. .( ( E E L R R ` ] ` ` L B B R ` ` ` ] @.,.t.c.n.n.c.c.R.R.",
"R.R.] ( R R L L R E ` ( ( ( J B S L ( ` ( ( ] X.,.w.s.c.l.l.R.R.",
"R.R.E R R J L R R ( ( ( ( R S B B S E ` ( ( (  . .;.w.t.h.l.R.R.",
"R.R.E L L L L R E ( E ( E L B B B S R E E E ( E ]  .*.,.7.s.R.R.",
"R.R.m L L J L R E E E E R S B m m B L E E R E R ( ` ] @.,.L R.R.",
"R.R., z m m S B J J S J J S B B S B J J L J S J S J J L b 2 R.R.",
"R.R.. ; 2 2 3 3 3 7 7 7 7 7 e e e 7 7 7 7 7 7 3 3 3 3 , % . R.R.",
"R.R.R.R.                                                R.R.R.R.",
"R.R.R.R.R.R.R.R.R.R.R.R.R.R.R.R.R.R.R.R.R.R.R.R.R.R.R.R.R.R.R.R."
};
