/* XPM */
static char *browser[] = {
/* columns rows colors chars-per-pixel */
"32 32 167 2",
"   c #000000",
".  c #1E150E",
"X  c #49392F",
"o  c #583E2A",
"O  c #735033",
"+  c #7C5533",
"@  c #42557A",
"#  c #644D69",
"$  c #506579",
"%  c #7F6C7B",
"&  c #9B1E23",
"*  c #852A34",
"=  c #AA2A2F",
"-  c #C91616",
";  c #C01F20",
":  c #DA3230",
">  c #F32923",
",  c #815734",
"<  c #865A36",
"1  c #8B5D37",
"2  c #8F6038",
"3  c #94613A",
"4  c #EC523E",
"5  c #873A49",
"6  c #914448",
"7  c #864C56",
"8  c #BD424B",
"9  c #8C5F7A",
"0  c #D45548",
"q  c #D17269",
"w  c #DE7869",
"e  c #3C678F",
"r  c #226099",
"t  c #3C6690",
"y  c #3B6993",
"u  c #326A9E",
"i  c #1B6FBD",
"p  c #1D70BE",
"a  c #3F75A6",
"s  c #2A70B2",
"d  c #2274BF",
"f  c #2A77BF",
"g  c #337ABC",
"h  c #3C7FBC",
"j  c #466E94",
"k  c #486F94",
"l  c #4C7296",
"z  c #517597",
"x  c #5D7994",
"c  c #527699",
"v  c #5C7499",
"b  c #567899",
"n  c #587A9A",
"m  c #7C788F",
"M  c #4F7AA2",
"N  c #4D7FB0",
"B  c #2576C1",
"V  c #2778C2",
"C  c #2C7BC4",
"Z  c #317EC6",
"A  c #307FC8",
"S  c #967283",
"D  c #7D8F9F",
"F  c #568ABC",
"G  c #5E8DBA",
"H  c #6081AD",
"J  c #7A86A8",
"K  c #618CB5",
"L  c #749BBF",
"P  c #7F9DBD",
"I  c #3782C6",
"U  c #3D83C4",
"Y  c #3582CA",
"T  c #3A85CC",
"R  c #3F89CE",
"E  c #3C88D0",
"W  c #4C8BC7",
"Q  c #428ACD",
"!  c #498DCE",
"~  c #5E8DC0",
"^  c #5F98CE",
"/  c #438DD1",
"(  c #498ED1",
")  c #4D92D4",
"_  c #5295D4",
"`  c #5498D6",
"'  c #5B9AD5",
"]  c #5195D8",
"[  c #5599D9",
"{  c #5B9EDD",
"}  c #6495C5",
"|  c #6A94C3",
" . c #6E9BC6",
".. c #649BCC",
"X. c #639CD3",
"o. c #609EDA",
"O. c #5EA0DD",
"+. c #7CA1C2",
"@. c #67A1D7",
"#. c #64A2DD",
"$. c #6AA6DD",
"%. c #6DA9DF",
"&. c #72A7DA",
"*. c #73A9DE",
"=. c #7BAEDF",
"-. c #579DE0",
";. c #599FE2",
":. c #5CA0E2",
">. c #64A5E2",
",. c #69A6E1",
"<. c #6CA9E4",
"1. c #73ADE4",
"2. c #7AAFE0",
"3. c #77B0E5",
"4. c #7AB1E5",
"5. c #76B1E8",
"6. c #78B3E9",
"7. c #909DA9",
"8. c #829EB9",
"9. c #9DA6AF",
"0. c #A0A2A4",
"q. c #ADB1B6",
"w. c #B1B3B4",
"e. c #B4B7BB",
"r. c #83B1DD",
"t. c #B1BECA",
"y. c #83B3E3",
"u. c #89B8E6",
"i. c #84B8E8",
"p. c #88BAE8",
"a. c #94BDE4",
"s. c #90BEE9",
"d. c #B5C1CC",
"f. c #BBCADB",
"g. c #95C2EB",
"h. c #9BC4EA",
"j. c #A0C5E8",
"k. c #A5C8EB",
"l. c #A8CBEB",
"z. c #AFD0EF",
"x. c #B5D2EE",
"c. c #BDD6ED",
"v. c #AFD0F0",
"b. c #B8D5F1",
"n. c #C7C7C8",
"m. c #CCCCCC",
"M. c #CED0D4",
"N. c #D4D9DE",
"B. c #D8DBDD",
"V. c #CFDCE7",
"C. c #CDDEEE",
"Z. c #C2DBF2",
"A. c #C9DFF3",
"S. c #CDE2F4",
"D. c #D3E4F5",
"F. c #DCEAF6",
"G. c #DDEBF8",
"H. c #E7E7E7",
"J. c #E6E7E8",
"K. c #E1EDF7",
"L. c #E3EEF9",
"P. c #E7F1FB",
"I. c #EEF5FB",
"U. c #F0F6FC",
"Y. c #F4F8FC",
"T. c #FFFFFF",
"R. c None",
/* pixels */
"R.R.R.R.R.R.R.R.R.R.R.R.R.R.R.R.R.R.R.R.R.R.R.R.R.R.R.R.R.R.R.R.",
"R.R.R.R.R.R.R.R.R.R.R.R.R.R.R.R.R.R.R.R.R.R.R.R.R.R.R.R.R.R.R.R.",
"R.R.R.X.<.<.<.<.<.<.<.<.5.5.5.6.6.5.<.<.<.<.<.<.<.<.<.>.o.R.R.R.",
"R.R.X.>.>.:.:.:.<.:.;.;.>.5.5.<.<.;.;.:.:.;.:.;.;.;.;.;.>.{ R.R.",
"R.R.<.:.>.:.:.:.>.<.>.;.;.1.1.5.5.:.;.;.;.:.;.;.<.:.;.;.-.>.R.R.",
"R.R.<.>.>.>.<.5.>.>.5.>.>.5.6.g.i.:.>.:.:.:.>.1.<.<.>.:.>.<.R.R.",
"R.R.<.,.<.<.5.>.>.,.1.>.;.2.1.l.v.>.<.:.:.;.1.<.| <.>.<.>.1.R.R.",
"R.R.<.>.<.<.<.;.;.<.>.{ ;.>.>.G.G.;.;.;.o.,.&.9 v $.1.,.,.<.R.R.",
"R.R.1.>.<.1.1.#.{ 4.4.,.{ { $.T.T.#.{ ;.o.G 8 # X.1.1.<.,.<.R.R.",
"R.R.<.,.,.1.1.1.<.4.i.6.{ { p.T.T.s.{ o.J : 5 } 4.2.<.<.#.1.R.R.",
"R.R.<.,.<.1.1.1.4.4.g.S.4.u.L.T.T.L.r.S > = K =.4.1.<.<.>.*.R.R.",
"R.R.,.,.<.1.1.2.4.4.,.S.T.T.A.h.h.f.w > ; b $.1.1.{ o.,.{ <.R.R.",
"R.R.O.>.,.1.1.4.3.,.] k.T.y.] _ H 0 > - % W [ { #.1.<.,.[ ,.R.R.",
"R.R.] { $.<.*.1.3.] #.I.l.) ! m 4 > - 7 N.u.,.[ [ [ %.,.$.$.R.R.",
"R.R.) / { %.#.4.x.G.T.T.$.! P q > - * L T.T.L.Z.h.1.$.,.{ { R.R.",
"R.R./ E / 1.Z.Y.T.T.T.T.) G J.w.6 & b =.T.T.T.T.Y.A.%.$.#.) R.R.",
"R.R.E E E / ) #.*.j.D.T. .N.H.m.q.@ X.g.T.K.b.s.*.<.$.{ R / R.R.",
"R.R.E T T R E Q ) 1.1.V.M.H.m.9.y h ( D.G.>.1.<.%.%.#.O.T E R.R.",
"R.R.E T T T R R ( *.@.t.H.m.D u Q ( x.T.a.Q $.<.$.$.O.R Y R R.R.",
"R.R.T Y Y T T R / $.+.H.n.0.M.C.C.Y.I.F.K.R ` $.$.$._ Y Y R R.R.",
"R.R.T Y Y Y Y T T F B.e.n ..A.T.T.x.Q T r.&.) @.@.#.) T Y Y R.R.",
"R.R.Y Y A Y Y Y g d.7.c ..#.=.T.T.@.T T Y Y Q o.O.{ T Q Y Y R.R.",
"R.R.Y V C C C g 8.x F ^ @.) Y Y.Y.I I Z Z I Y ' ' Q A C V Y R.R.",
"R.R.Y B C C f a e s ' ` ! Z Z Z.Z.C Z Z Z Z Z Q Q C C V V Y R.R.",
"R.R.C B B B s r s Z ` Q C C C r.r.C C C C C C V C V V V d C R.R.",
"R.R.V d d B B B V Z ! C V f B W W V V V V V V B V d B d d V R.R.",
"R.R.f d d d d d B V I d d d d d d d d d d d d B d d p p p f R.R.",
"R.R.y i i i i i p p d p i i p p i i p i i d p p p p p p p t R.R.",
"R.R.X $ j l l l l l c c b b n n n n b c c z l l l l k k $ X R.R.",
"R.R.. o O O + + , < < 1 1 1 3 3 3 3 3 1 1 < < , + + + O o . R.R.",
"R.R.R.R.                                                R.R.R.R.",
"R.R.R.R.R.R.R.R.R.R.R.R.R.R.R.R.R.R.R.R.R.R.R.R.R.R.R.R.R.R.R.R."
};
