/* XPM */
static char *gcolor_[] = {
/* columns rows colors chars-per-pixel */
"32 32 220 2",
"   c #000000",
".  c #0F0F11",
"X  c #1D1B1E",
"o  c #1F1D20",
"O  c #211F22",
"+  c #232225",
"@  c #333134",
"#  c #39363B",
"$  c #3E3C3E",
"%  c #443D3F",
"&  c #493E3E",
"*  c #73362B",
"=  c #7B342A",
"-  c #37591E",
";  c #3A5429",
":  c #3D6026",
">  c #40562C",
",  c #42433F",
"<  c #4C423F",
"1  c #454A3F",
"2  c #55423E",
"3  c #504E3C",
"4  c #46523E",
"5  c #49533D",
"6  c #47593A",
"7  c #485D39",
"8  c #625228",
"9  c #73423F",
"0  c #437025",
"q  c #467429",
"w  c #443F44",
"e  c #444344",
"r  c #4C4244",
"t  c #454B42",
"y  c #484B46",
"u  c #4B454A",
"i  c #4B4C4B",
"p  c #544444",
"a  c #5C4643",
"s  c #5D4844",
"d  c #52474A",
"f  c #54494D",
"g  c #5C4B4C",
"h  c #4B5444",
"j  c #4E5A43",
"k  c #4E544B",
"l  c #4F5A48",
"z  c #565240",
"x  c #545F42",
"c  c #5C5A44",
"v  c #52574E",
"b  c #525C4C",
"n  c #554E54",
"m  c #584E52",
"M  c #545453",
"N  c #5F5154",
"B  c #565B52",
"V  c #585C53",
"C  c #575259",
"Z  c #59545C",
"A  c #5B595B",
"S  c #634A43",
"D  c #6B4C46",
"F  c #644D4B",
"G  c #6C4E4A",
"H  c #724743",
"J  c #675246",
"K  c #67504F",
"L  c #6D524D",
"P  c #684F51",
"I  c #645154",
"U  c #6B5251",
"Y  c #655459",
"T  c #6A555B",
"R  c #62595E",
"E  c #6E585E",
"W  c #4F6143",
"Q  c #546446",
"!  c #556847",
"~  c #55644B",
"^  c #58664F",
"/  c #566A49",
"(  c #596B4D",
")  c #5A6352",
"_  c #5C6A50",
"`  c #5E635A",
"'  c #61665F",
"]  c #5C5760",
"[  c #5E5962",
"{  c #625D65",
"}  c #6F5960",
"|  c #725B63",
" . c #646067",
".. c #636960",
"X. c #666169",
"o. c #69646D",
"O. c #666A68",
"+. c #6C6770",
"@. c #656D77",
"#. c #6E6972",
"$. c #616F7D",
"%. c #726C76",
"&. c #746E79",
"*. c #76707B",
"=. c #79737D",
"-. c #90361F",
";. c #9C391F",
":. c #A73C1E",
">. c #BA3416",
",. c #B43817",
"<. c #B73A1A",
"1. c #BC3C1C",
"2. c #873026",
"3. c #823328",
"4. c #C3351C",
"5. c #D12C22",
"6. c #CD3B24",
"7. c #D13321",
"8. c #D03C2C",
"9. c #B4421C",
"0. c #B4491F",
"q. c #B54A20",
"w. c #B84B21",
"e. c #BE4629",
"r. c #B65125",
"t. c #C64022",
"y. c #CB452C",
"u. c #C8482F",
"i. c #D0452E",
"p. c #CD4838",
"a. c #D14532",
"s. c #D14B3F",
"d. c #907B45",
"f. c #917A4A",
"g. c #957D50",
"h. c #D84C47",
"j. c #D25341",
"k. c #D55149",
"l. c #DA5752",
"z. c #DE5A5A",
"x. c #D56154",
"c. c #D86154",
"v. c #DA6760",
"b. c #D77069",
"n. c #DA7069",
"m. c #D67170",
"M. c #D87474",
"N. c #528B2B",
"B. c #559230",
"V. c #54A32D",
"C. c #53AA2F",
"Z. c #5CA332",
"A. c #55A935",
"S. c #5CAD35",
"D. c #5AA638",
"F. c #52AD38",
"G. c #4CB037",
"H. c #53B632",
"J. c #58B636",
"K. c #54BA35",
"L. c #5CB339",
"P. c #57BB39",
"I. c #5ABD3D",
"U. c #61A435",
"Y. c #60AB37",
"T. c #60B139",
"R. c #5EBF42",
"E. c #63A668",
"W. c #5DC044",
"Q. c #62C34A",
"!. c #65C651",
"~. c #69C755",
"^. c #78CD67",
"/. c #79CC69",
"(. c #998156",
"). c #9E845C",
"_. c #A38A64",
"`. c #B69C78",
"'. c #BAA07F",
"]. c #2D749D",
"[. c #2376A5",
"{. c #2F79A3",
"}. c #2F7DA8",
"|. c #367CA3",
" X c #5F7383",
".X c #597C92",
"XX c #7C7680",
"oX c #817B86",
"OX c #7F8A97",
"+X c #4B82A0",
"@X c #5D89A4",
"#X c #438BB1",
"$X c #618DAA",
"%X c #6497B4",
"&X c #529CC5",
"*X c #66A1C1",
"=X c #60A3C9",
"-X c #6BACCF",
";X c #73AFD1",
":X c #77B2D2",
">X c #79B4D4",
",X c #A29AA7",
"<X c #BF9AA0",
"1X c #8DBDB9",
"2X c #B2BFBE",
"3X c #CA8486",
"4X c #DD8380",
"5X c #D28A8D",
"6X c #DC8988",
"7X c #E08380",
"8X c #E09796",
"9X c #C0A789",
"0X c #C9B096",
"qX c #C49DA5",
"wX c #8ECE85",
"eX c #9ECAB0",
"rX c #A0D1A0",
"tX c #86B8C8",
"yX c #80B6D6",
"uX c None",
/* pixels */
"uXuXuXuXuXuXuXuXuXuXuXuXuXuXuXuXuXuXuXuXuXuXuXuXuXuXuXuXuXuXuXuX",
"uXuXuXuXuXuXuXuXuXuXuXuXuXuXuXuXuXuXuXuXuXuXuXuXuXuXuXuXuXuXuXuX",
"uXuXuX=.oXoXoXoXoXoX=.OXoXoXoXoXoXoXoXoXoXoXoXoXoXXXoXoXXXuXuXuX",
"uXuX%.&.&.=.&.=.*.=.*.=.=.=.=.=.XX*.=.XX&.XXXX=.XX&.XX&.&.&.uXuX",
"uXuXXX&.&.&.*.*.=.=.=.=.=.=.=.=.*.XX&.*.XX*.*.*.&.XX&.&.&.XXuXuX",
"uXuXXX%.&.&.*.=.=.=.=.=.=.XX=.XXXXXXXXXXXXXXXX=.XX&.&.&.%.XXuXuX",
"uXuX*.%.&.&.*.=.=.=.XXXXXX=.XX=.XXXXXXXXXXXX=.=.&.&.%.%.#.=.uXuX",
"uXuX&.#.%.&.*.*.=.=.=.=.=.=.=.XX*.XX&.XX*.=.=.=.=.=.%.%.%.*.uXuX",
"uXuX&.#.#.%.*.*.=.=.=.=.*.*.*.&.*.*.=.*.=.=.=.*.*.&.%.%.#.&.uXuX",
"uXuX%.o.#.%.&.&.*.*.*.%.$..X+X#X*X%X$X.X X@.%.*.&.&.#.#.o.%.uXuX",
"uXuX%.o.+.#.%.%.#.OX@X|.|.{.].}.-X;X:X:XyXeXE.O.&.%.#.+.o.#.uXuX",
"uXuX#.X.o.+.#.%.| z.3X<X,X@X|.[.&X=X:XeXwX^.G.' %.#.#.o.X.#.uXuX",
"uXuXo.X.X.o.#.%.| c.8X6Xb.M.5XqXeXrX/.~.~.~.G.' #.#.o.o.X.+.uXuX",
"uXuXo.{ X.o.o.o.} l.4X4X4X4X7Xh.0XR.R.R.Q.Q.F.' +.o.o.X.{ o.uXuX",
"uXuXX.{ { X.o.o.} k.b.b.n.n.v.5.9XK.L.I.I.R.F.` o.o.X.{ { X.uXuX",
"uXuX{ { {  .X.o.E s.x.x.c.c.8.7.'.H.H.P.P.I.A.) o.X.{ { { { uXuX",
"uXuX{ ] [ {  . .T p.j.j.j.a.7.6.`.H.J.J.J.J.A.B { { { [ [ [ uXuX",
"uXuX[ Z ] [ { { Y u.y.i.t.6.4.>._.C.A.L.L.L.D.v Z A C C ] [ uXuX",
"uXuX[ C Z [ { { P u.y.t.4.>.>.>.).V.V.A.S.T.D.h M M M Z C [ uXuX",
"uXuXZ C C Z A R P e.1.,.<.<.<.1.(.V.Z.Z.S.Y.q 6 j B ) Z Z A uXuX",
"uXuXZ C C N Y T U 2.:.9.9.9.9.0.(.V.U.U.B.: 6 ~ _ ) ) V M A uXuX",
"uXuXn n m I I I U L H 3.;.w.0.0.d.Z.U.0 ; Q ( ( _ ^ ) b v B uXuX",
"uXuXn f g m F I U G L L H 3.-.r.d.N.- 7 / ( ( ( ^ ~ b v k M uXuX",
"uXuXn d f g g F F G G G D D D * 8 > ! ! ! / ~ ~ B b l k k M uXuX",
"uXuXn u d d g g g F F S D D J J c Q ! Q Q ~ b b l k k i i i uXuX",
"uXuXu u r u d p s s s S S S S S c Q W W j j j h h k y y u i uXuX",
"uXuXu w r w r p p p p p w H S 9 3 5 j j h h y h y y e e e u uXuX",
"uXuX# w w w w w w & p 2 a & & 2 3 5 4 4 4 t t t e , e e e # uXuX",
"uXuXX @ $ $ $ % % % & & < < < p y 3 1 1 t , , e $ $ $ $ @ o uXuX",
"uXuX. X O O O O + + + + + + + + + + + + + + O O + O O o o . uXuX",
"uXuXuXuX                                                uXuXuXuX",
"uXuXuXuXuXuXuXuXuXuXuXuXuXuXuXuXuXuXuXuXuXuXuXuXuXuXuXuXuXuXuXuX"
};
