/* XPM */
static char *gnome_terminal[] = {
/* columns rows colors chars-per-pixel */
"32 32 102 2 ",
"   c black",
".  c gray2",
"X  c #090909",
"o  c gray4",
"O  c #0B0B0B",
"+  c #0C0C0C",
"@  c gray5",
"#  c #0E0E0E",
"$  c gray6",
"%  c #101010",
"&  c #161616",
"*  c #191919",
"=  c gray10",
"-  c #1B1B1B",
";  c gray11",
":  c #1D1D1D",
">  c #1E1E1E",
",  c gray12",
"<  c #202020",
"1  c gray13",
"2  c #222222",
"3  c #232323",
"4  c gray14",
"5  c #252525",
"6  c gray15",
"7  c #272727",
"8  c #282828",
"9  c gray16",
"0  c #2A2A2A",
"q  c gray17",
"w  c #2C2C2C",
"e  c #2D2D2D",
"r  c gray18",
"t  c #2F2F2F",
"y  c gray19",
"u  c #313131",
"i  c #323232",
"p  c gray20",
"a  c #343434",
"s  c #353535",
"d  c gray21",
"f  c #373737",
"g  c gray22",
"h  c #393939",
"j  c #3A3A3A",
"k  c gray23",
"l  c #3C3C3C",
"z  c gray24",
"x  c #3E3E3E",
"c  c #3F3F3F",
"v  c gray25",
"b  c #414141",
"n  c gray26",
"m  c #434343",
"M  c #444444",
"N  c gray27",
"B  c #464646",
"V  c gray28",
"C  c #484848",
"Z  c #494949",
"A  c gray29",
"S  c #4B4B4B",
"D  c #4C4C4C",
"F  c gray30",
"G  c #4E4E4E",
"H  c gray31",
"J  c #505050",
"K  c #515151",
"L  c gray32",
"P  c #535353",
"I  c gray33",
"U  c #555555",
"Y  c #565656",
"T  c gray34",
"R  c #585858",
"E  c gray35",
"W  c #5A5A5A",
"Q  c #5B5B5B",
"!  c gray36",
"~  c #5D5D5D",
"^  c gray37",
"/  c #606060",
"(  c gray38",
")  c #626262",
"_  c #646464",
"`  c #656565",
"'  c #676767",
"]  c #686868",
"[  c #6A6A6A",
"{  c gray43",
"}  c gray44",
"|  c gray45",
" . c #747474",
".. c #808080",
"X. c gray57",
"o. c #9A9A9A",
"O. c gray75",
"+. c #CBCBCB",
"@. c #D0D0D0",
"#. c gray82",
"$. c gray89",
"%. c None",
/* pixels */
"%.%.%.%.%.%.%.%.%.%.%.%.%.%.%.%.%.%.%.%.%.%.%.%.%.%.%.%.%.%.%.%.",
"%.%.%.%.%.%.%.%.%.%.%.%.%.%.%.%.%.%.%.%.%.%.%.%.%.%.%.%.%.%.%.%.",
"%.%.%.h c v N A H H I E ~ ) ) ) |  .| | { [ ' ' ) ) ~ E I %.%.%.",
"%.%.c d i d d c v v N A A A H H E ) ' ~ ) ~ E ~ I I J J H J %.%.",
"%.%.N h i d d h c h c v v N N N H E ~ E E E I I I J J H H I %.%.",
"%.%.H h d X.J h h c c v N N N N N ~ ~ ~ E E E I I J J H H I %.%.",
"%.%.H h d ' +.X.v c v v N N N N A I ~ E E E I I I J H H H E %.%.",
"%.%.J h d h [ $.A v N N A A H H H I ) ~ ~ E E I I J H H A I %.%.",
"%.%.J c d o.O.E c N v N N A N A A A ~ E I E I I J J H A H I %.%.",
"%.%.J h d ~ h h  .#.#.#.J N A A N A I E E I I J J J H A A J %.%.",
"%.%.A h d d h h N H J J N N N N N N H I I I J H J A A A H J %.%.",
"%.%.A h d d d h h h c v v v N N v N N I J J H H H A A N N I %.%.",
"%.%.N d i d d h c c c v N N N N A N N I J J J H H A A N N J %.%.",
"%.%.v d i d d d d d h c c c c c c c v N H A A A N N N N N J %.%.",
"%.%.c i i i i d h h h h c c c c c c c v A A A A N N v v v J %.%.",
"%.%.h t t t i d d d h h h h h c h h c h A N N v N v v v v H %.%.",
"%.%.d t t t i i i i d d d d h d h d d d c v v v v v c h c A %.%.",
"%.%.i 0 0 t t t d d d d h h c c c c h h c N v v v c h h h A %.%.",
"%.%.t 6 0 0 t t t t i i i i i i i d i i i h c h h h h h h v %.%.",
"%.%.t 0 0 0 0 t t t t i i i i i i i i i i d h d d d d i d c %.%.",
"%.%.t 6 6 0 0 0 0 0 t t i t i t i t t t t i d d i i i t i c %.%.",
"%.%.0 2 6 6 6 6 0 0 0 0 0 0 0 t 0 t t 0 0 0 i i i t t t 0 d %.%.",
"%.%.0 2 2 2 6 6 0 0 0 t t t i i i i t t t 0 t t t t 0 t 0 i %.%.",
"%.%.6 : 2 2 6 2 6 2 6 6 6 6 6 6 6 6 6 6 6 6 6 t 0 0 0 6 6 t %.%.",
"%.%.2 2 : 2 2 2 6 2 2 6 6 6 6 6 6 6 6 6 6 6 2 0 6 6 6 2 6 0 %.%.",
"%.%.2 : : : 2 : : 2 2 2 2 6 6 2 6 2 6 2 2 2 2 2 2 2 2 2 2 6 %.%.",
"%.%.2 = : = : : : 2 : 2 : 2 2 2 2 2 : 2 : : : 2 2 2 : : : 6 %.%.",
"%.%.= = = = : = : : : : 2 : : 2 2 : 2 : 2 : : : : : : = : = %.%.",
"%.%.X & = : 2 : 2 2 2 6 6 6 6 0 6 6 6 6 6 2 2 2 : 2 : : & X %.%.",
"%.%.. X X @ @ @ @ @ @ % @ % @ % @ % % @ % @ @ @ @ @ @ X X . %.%.",
"%.%.%.%.                                                %.%.%.%.",
"%.%.%.%.%.%.%.%.%.%.%.%.%.%.%.%.%.%.%.%.%.%.%.%.%.%.%.%.%.%.%.%."
};
