/* XPM */
static char *xchat[] = {
/* columns rows colors chars-per-pixel */
"32 32 126 2",
"   c #000000",
".  c #1E150E",
"X  c #4E3D24",
"o  c #583E2A",
"O  c #735033",
"+  c #7C5533",
"@  c #5E7E23",
"#  c #777D32",
"$  c #815734",
"%  c #865A36",
"&  c #8B5D37",
"*  c #8F6038",
"=  c #94613A",
"-  c #5D801D",
";  c #62861F",
":  c #74A71A",
">  c #77A91B",
",  c #79AB1E",
"<  c #638721",
"1  c #668825",
"2  c #688C25",
"3  c #6B8D2A",
"4  c #72892A",
"5  c #6D9327",
"6  c #6E9229",
"7  c #709726",
"8  c #759F27",
"9  c #72932E",
"0  c #759D2A",
"q  c #799F2D",
"w  c #6D8C31",
"e  c #728F35",
"r  c #759633",
"t  c #7D9030",
"y  c #769A33",
"u  c #7B9E36",
"i  c #76A422",
"p  c #7CAE23",
"a  c #77A12A",
"s  c #7AA22D",
"d  c #7DA92D",
"f  c #7EB122",
"g  c #7DA333",
"h  c #7FA33C",
"j  c #849434",
"k  c #8A9838",
"l  c #80AA2E",
"z  c #81B226",
"x  c #87B927",
"c  c #85B62B",
"v  c #86B828",
"b  c #8ABB2D",
"n  c #80A734",
"m  c #83AB34",
"M  c #81A538",
"N  c #86AD39",
"B  c #88AE3A",
"V  c #86B133",
"C  c #89B436",
"Z  c #8BBB33",
"A  c #8BB43B",
"S  c #8EB93A",
"D  c #90BE36",
"F  c #92BB3D",
"G  c #8EC02D",
"H  c #91C42E",
"J  c #8FC131",
"K  c #92C333",
"L  c #97C934",
"P  c #9ACC36",
"I  c #96C33C",
"U  c #9CCC3C",
"Y  c #9FD13A",
"T  c #A2D53B",
"R  c #A6D93D",
"E  c #AADE3F",
"W  c #85A741",
"Q  c #87A942",
"!  c #8AAD42",
"~  c #8AAC48",
"^  c #8FB247",
"/  c #94BC41",
"(  c #92AA66",
")  c #96AD6A",
"_  c #97C141",
"`  c #98C242",
"'  c #9FCE40",
"]  c #A5D444",
"[  c #AADC43",
"{  c #A6D14D",
"}  c #A8D648",
"|  c #ADDD4A",
" . c #B0DF4D",
".. c #ADD852",
"X. c #AEE143",
"o. c #B1E445",
"O. c #B0E14A",
"+. c #B5E550",
"@. c #BBE955",
"#. c #AAC07E",
"$. c #A5B18C",
"%. c #ADC184",
"&. c #C2CEA8",
"*. c #C8D4AF",
"=. c #C7CBBB",
"-. c #C8CEBC",
";. c #CBCFC2",
":. c #CDD3C2",
">. c #D2D7C7",
",. c #D2D8C5",
"<. c #D3D7CB",
"1. c #D6DACC",
"2. c #D8DDCF",
"3. c #D7DAD2",
"4. c #DBDED6",
"5. c #DCE2D1",
"6. c #DFE2DA",
"7. c #E0E5D8",
"8. c #E5E6E4",
"9. c #E7E9E1",
"0. c #E8EAE6",
"q. c #ECECEB",
"w. c #F0F1EF",
"e. c #F2F2F1",
"r. c #F8F8F8",
"t. c None",
/* pixels */
"t.t.t.t.t.t.t.t.t.t.t.t.t.t.t.t.t.t.t.t.t.t.t.t.t.t.t.t.t.t.t.t.",
"t.t.t.t.t.t.t.t.t.t.t.t.t.t.t.t.t.t.t.t.t.t.t.t.t.t.t.t.t.t.t.t.",
"t.t.t...@.@.@.@.@.@.@.@.@.@.@.@.@.@.@.@.@.@.@.@.@.@.@.@...t.t.t.",
"t.t.{ o.X.X.o.o.o.o.o.o.o.o.o.o.o.o.o.o.o.o.o.o.o.o.o.o.o.{ t.t.",
"t.t.+.X.X.X.X.o.X.O.X.O.o.O.o.O.+.o.O.o.o.O.o.o.o.o.X.o.X.+.t.t.",
"t.t.O.E E X.X.o.O.O.O.] F A N m m S F I ] O.|  .[ o.X.E E O.t.t.",
"t.t.| [ E [ X.| | } B M A F / / ` ` F / B A }  .| [ [ E E  .t.t.",
"t.t.| R E E | | A k B / / / / / / ` ` / ` / B / | | [ [ R O.t.t.",
"t.t.| R R } [ B M A A / / / &.r.%.F *.r.#.` ` A F [ } R R } t.t.",
"t.t.[ T R ] F u B A A A A A :.e.Q S 1.w.! ` ` ` B I ] T T [ t.t.",
"t.t.] Y T U 9 N B B A B A ! q.1.B ^ w.,.A F F I F M Y T T } t.t.",
"t.t.] Y T V g m N A M 7.9.9.e.q.9.0.w.q.9.5.S F I S S T P ] t.t.",
"t.t.] P U s n m m N g <.4.0.w.6.4.0.w.7.4.-.S F D F m U P ] t.t.",
"t.t.Y L P 9 g n m m n 3 4 <.q.w 9 <.q.r 9 r A F F D s P P Y t.t.",
"t.t.U L L 6 g n n n n m Q q.:.g ~ w.;.m V S V S S Z s P L U t.t.",
"t.t.U K K 9 s g g g 2.8.0.q.0.9.8.q.0.8.7.m A S C V g L K U t.t.",
"t.t.L J J g 0 s a y =.3.8.q.5.3.8.0.4.3.:.g C V C l V L H U t.t.",
"t.t.I G J J 1 y s y 1 1 =.8.w 3 -.0.e 3 6 m V V V q Z J G K t.t.",
"t.t.K J J J g 3 a a s h 8.;.0 h 9.-.q m V l m m 8 A Z G b K t.t.",
"t.t.J v G Z I r 5 y y ( 8.$.a ) 8.$.s s d l d a g K J b b K t.t.",
"t.t.Z x c G b J g 2 0 2 @ 1 0 2 < 1 s s d a 6 h Z b c v x Z t.t.",
"t.t.b x c G b b Z h 1 0 0 0 0 0 a a 0 0 5 y S Z Z b b v v c t.t.",
"t.t.c f c c c b c i 2 7 1 3 3 1 3 r y g A c c c c c v v v c t.t.",
"t.t.c f f f f c f - 2 ; s Z Z _ S c c c c c c c c c f f f c t.t.",
"t.t.f p p f f i - - e d d v f f z z z z z z z p f f f f , z t.t.",
"t.t.f , , , , d C V f f p f p p p p p p p p p p , p , , , f t.t.",
"t.t.p > > > , , i , > p p i , , p , , , p i , , , > > > > p t.t.",
"t.t.4 > : : : : : : : > : : : : : : : : : : > : : : : : : 4 t.t.",
"t.t.X # t t t j j j j j j k k k k k k j j j j j j t t t # X t.t.",
"t.t.. o O + + + $ % % & & = = = = = = & & % % $ + + + O o . t.t.",
"t.t.t.t.                                                t.t.t.t.",
"t.t.t.t.t.t.t.t.t.t.t.t.t.t.t.t.t.t.t.t.t.t.t.t.t.t.t.t.t.t.t.t."
};
