/* XPM */
static char *browser[] = {
/* columns rows colors chars-per-pixel */
"48 48 232 2",
"   c #000000",
".  c #2A1E13",
"X  c #463224",
"o  c #573E2A",
"O  c #583E2A",
"+  c #7E2631",
"@  c #62442D",
"#  c #714E2F",
"$  c #74502F",
"%  c #6E4D33",
"&  c #724F33",
"*  c #765131",
"=  c #7B5332",
"-  c #66384B",
";  c #6A445B",
":  c #4C5B6A",
">  c #57516B",
",  c #505779",
"<  c #685066",
"1  c #AA1B1E",
"2  c #B71616",
"3  c #B61718",
"4  c #AC242A",
"5  c #BF2424",
"6  c #AA3131",
"7  c #C91515",
"8  c #C11A1C",
"9  c #F21919",
"0  c #E12124",
"q  c #F6362A",
"w  c #EB3B31",
"e  c #815634",
"r  c #855935",
"t  c #8A5C36",
"y  c #8E5F38",
"u  c #936139",
"i  c #F7523B",
"p  c #F9523A",
"a  c #903541",
"s  c #B33442",
"d  c #93454A",
"f  c #AA515D",
"g  c #846B71",
"h  c #876F7B",
"j  c #96707B",
"k  c #D24140",
"l  c #E75342",
"z  c #E66957",
"x  c #C26C61",
"c  c #C47774",
"v  c #275785",
"b  c #365B86",
"n  c #215A91",
"m  c #3C6184",
"M  c #36618A",
"N  c #2F6292",
"B  c #23639F",
"V  c #28659E",
"C  c #316A9E",
"Z  c #3F6F9B",
"A  c #1B6FBD",
"S  c #1D70BE",
"D  c #2768A6",
"F  c #266BAB",
"G  c #3970A6",
"H  c #3171AD",
"J  c #3E74A9",
"K  c #266FB4",
"L  c #296EB1",
"P  c #2172BF",
"I  c #2876BF",
"U  c #3A77B1",
"Y  c #3978B4",
"T  c #3379BC",
"R  c #3A7CBB",
"E  c #4B6B88",
"W  c #5A6785",
"Q  c #51718F",
"!  c #5C778F",
"~  c #466E93",
"^  c #517399",
"/  c #587C9F",
"(  c #677E93",
")  c #7C7390",
"_  c #717899",
"`  c #4B78A3",
"'  c #457AAC",
"]  c #537DA6",
"[  c #2475C1",
"{  c #2C7AC4",
"}  c #2F7EC8",
"|  c #327EC5",
" . c #317FC8",
".. c #806785",
"X. c #8F6C86",
"o. c #997C80",
"O. c #6E8396",
"+. c #5D86AD",
"@. c #4180BC",
"#. c #4C84BA",
"$. c #5383B3",
"%. c #5D8AB1",
"&. c #5487B8",
"*. c #5689B9",
"=. c #5F8EBA",
"-. c #7C86AA",
";. c #638DB3",
":. c #648FB8",
">. c #788FB3",
",. c #6990B5",
"<. c #6994BB",
"1. c #3680C5",
"2. c #3A81C5",
"3. c #3582CA",
"4. c #3A85CC",
"5. c #3E88CE",
"6. c #3B87D0",
"7. c #3E89D1",
"8. c #4284C2",
"9. c #4886C2",
"0. c #4C89C4",
"q. c #4086C9",
"w. c #428ACE",
"e. c #4B8ECD",
"r. c #548CC1",
"t. c #5A8FC0",
"y. c #4C90CF",
"u. c #5B91C4",
"i. c #5190CC",
"p. c #5B96CE",
"a. c #438CD1",
"s. c #498ED1",
"d. c #4790D4",
"f. c #4D93D4",
"g. c #5295D5",
"h. c #5699D6",
"j. c #5B9AD6",
"k. c #5196D8",
"l. c #569BDB",
"z. c #5C9EDC",
"x. c #618EC2",
"c. c #6B98C1",
"v. c #629ACD",
"b. c #6A9CCD",
"n. c #639ED4",
"m. c #699FD1",
"M. c #609FD9",
"N. c #5DA0DF",
"B. c #6EA1CF",
"V. c #6AA1D4",
"C. c #64A3DD",
"Z. c #6AA6DE",
"A. c #6CA8DF",
"S. c #74A6D5",
"D. c #70A6DA",
"F. c #74A9DD",
"G. c #7BADDE",
"H. c #569DE0",
"J. c #5A9FE1",
"K. c #5CA0E1",
"L. c #65A5E2",
"P. c #69A7E1",
"I. c #67A8E4",
"U. c #6DAAE2",
"Y. c #73ADE4",
"T. c #76B0E5",
"R. c #7AB2E5",
"E. c #77B0E8",
"W. c #7CB4E8",
"Q. c #848592",
"!. c #808E9B",
"~. c #8C9AA6",
"^. c #929DA7",
"/. c #B49FA4",
"(. c #9AA0A5",
"). c #ACADAE",
"_. c #AFB5BA",
"`. c #B4B4B5",
"'. c #B8BBBF",
"]. c #83A4C2",
"[. c #8CA8C3",
"{. c #87A9C8",
"}. c #98AEC3",
"|. c #82B1DC",
" X c #A3B3C3",
".X c #A9B1C2",
"XX c #A0B6CB",
"oX c #84B6E5",
"OX c #8AB7E0",
"+X c #8BB9E3",
"@X c #80B7E9",
"#X c #85B8E8",
"$X c #89BBE9",
"%X c #BFC7CF",
"&X c #B6C4D2",
"*X c #9FC3E5",
"=X c #95C1EA",
"-X c #98C3E9",
";X c #A0C7EC",
":X c #A5C9EC",
">X c #AACCED",
",X c #B0CFEB",
"<X c #B3D1ED",
"1X c #BCD6EE",
"2X c #ADD0F0",
"3X c #BBD6F0",
"4X c #BED9F2",
"5X c #C6C7C7",
"6X c #CCCCCC",
"7X c #C6CED6",
"8X c #D2D6DA",
"9X c #DCDCDC",
"0X c #C5DBEF",
"qX c #DBDEE0",
"wX c #C2DBF2",
"eX c #C8DFF5",
"rX c #DFE1E2",
"tX c #CDE2F5",
"yX c #D4E6F6",
"uX c #D8E6F4",
"iX c #DBE9F6",
"pX c #DEECF8",
"aX c #E5E6E6",
"sX c #EAEAEA",
"dX c #E1EDF7",
"fX c #E4EEF9",
"gX c #E5F0FA",
"hX c #EDF4FA",
"jX c #F6F6F6",
"kX c #F6F9FD",
"lX c #FEFFFF",
"zX c None",
/* pixels */
"zXzXzXzXzXzXzXzXzXzXzXzXzXzXzXzXzXzXzXzXzXzXzXzXzXzXzXzXzXzXzXzXzXzXzXzXzXzXzXzXzXzXzXzXzXzXzXzX",
"zXzXzXzXzXzXzXzXzXzXzXzXzXzXzXzXzXzXzXzXzXzXzXzXzXzXzXzXzXzXzXzXzXzXzXzXzXzXzXzXzXzXzXzXzXzXzXzX",
"zXzXzXzXzXzXzXzXzXzXzXzXzXzXzXzXzXzXzXzXzXzXzXzXzXzXzXzXzXzXzXzXzXzXzXzXzXzXzXzXzXzXzXzXzXzXzXzX",
"zXzXzXzX<.A.Y.Y.Y.E.E.E.E.E.E.E.E.E.W.W.W.@X@XW.@X@XW.E.E.E.E.E.E.E.E.Y.E.E.E.Y.Y.Y.A.c.zXzXzXzX",
"zXzXzX:.I.K.K.J.K.K.I.K.K.K.K.K.K.K.I.U.E.I.E.I.I.I.K.K.K.K.K.K.K.K.K.K.J.J.J.J.J.J.J.K.%.zXzXzX",
"zXzXzXV.K.L.I.L.K.K.K.I.Y.I.L.K.J.K.K.U.E.E.I.E.E.I.K.K.K.K.K.K.K.K.J.K.J.J.J.J.J.J.J.K.m.zXzXzX",
"zXzXzXU.H.L.I.I.K.K.I.K.I.I.T.I.J.J.K.I.U.Y.E.E.E.K.H.K.H.K.K.H.J.J.J.J.L.L.J.J.H.H.H.H.U.zXzXzX",
"zXzXzXE.K.J.J.H.K.K.I.K.I.K.I.T.K.K.K.I.E.E.Y.@XW.K.K.K.K.K.K.K.K.K.K.Y.U.Y.P.J.H.H.H.J.Y.zXzXzX",
"zXzXzXY.L.P.P.I.U.Y.Y.Y.L.N.L.T.Y.C.K.U.E.E.E.:X;XK.K.L.z.K.N.K.K.C.U.Y.Y.U.U.P.K.L.P.L.T.zXzXzX",
"zXzXzXE.L.L.I.U.U.Y.Y.L.L.N.Y.E.I.K.K.U.W.E.L.tXyXK.T.Y.K.K.K.N.N.Z.E.Y.V.V.U.N.I.P.L.L.T.zXzXzX",
"zXzXzXY.L.L.P.U.U.Y.L.H.N.N.N.I.L.z.K.N.T.Y.C.kXkXK.L.N.N.N.N.N.L.E.F.t.) =.P.Y.U.U.L.L.Y.zXzXzX",
"zXzXzXY.L.P.U.U.U.Y.z.J.N.I.R.C.z.J.z.z.L.L.#XlXlX#Xz.J.z.N.N.z.Y.F.-.s Q b.Y.U.U.P.P.P.Y.zXzXzX",
"zXzXzXT.Z.P.Z.U.Y.T.L.z.z.L.T.T.T.z.z.N.z.z.2XlXlX<Xz.z.N.z.N.z.p.X.0 , u.F.T.Y.Y.P.P.L.Y.zXzXzX",
"zXzXzXY.L.P.U.U.U.Y.Y.U.z.P.R.R.W.Y.z.z.z.z.pXlXlXpXl.z.z.C.Z.r.f 9 ; &.D.T.Y.U.U.U.P.L.Y.zXzXzX",
"zXzXzXY.L.P.U.Y.Y.T.T.E.Y.Y.R.=X@XW.z.z.z.L.lXlXlXlXC.z.z.n.>.k 9 a %.S.T.T.T.Y.U.U.P.L.Y.zXzXzX",
"zXzXzXY.C.P.U.A.Y.Y.Y.T.E.E.R.W.fX;XU.l.C.wXlXlXlXlX4XC.i.) w 9 4 / B.R.T.T.T.Y.A.U.P.C.Y.zXzXzX",
"zXzXzXU.L.P.U.A.U.Y.G.Y.R.R.W.E.2XlXgX3XkXlXlXlXlXlXjXaXc q 9 8 W c.R.R.T.Y.U.P.U.A.N.C.Y.zXzXzX",
"zXzXzXU.C.C.A.U.Y.T.T.R.T.R.E.P.z.fXlXlXlX1XoXC.C.|..Xz q 9 7 < &.Z.C.R.Y.C.k.k.U.N.l.C.Y.zXzXzX",
"zXzXzXC.C.P.A.U.U.Y.Y.R.R.T.U.k.k.1XlXhXR.k.k.k.e._ l q 9 7 d ' y.h.I.P.Z.Y.Y.A.U.C.f.C.Y.zXzXzX",
"zXzXzXl.C.C.A.I.A.Y.Y.T.E.A.k.f.M.kXlXR.k.k.f.9.j p q 9 7 6 `.b.C.z.k.f.f.z.C.U.U.P.N.L.U.zXzXzX",
"zXzXzXh.d.C.I.A.U.Y.Y.T.T.h.f.z.3XlX<Xk.f.s.$.x i q 9 7 1 Q.9XeX#XY.z.z.h.z.j.Y.A.Z.C.C.U.zXzXzX",
"zXzXzXh.7.k.N.A.U.A.g.g.+X>XpXlXlXlXoXf.s.#./.p q 9 7 2 > {.jXlXlXgX4X-XY.Y.Y.U.U.C.h.C.A.zXzXzX",
"zXzXzXf.7.7.d.C.W.*XwXkXlXlXlXlXlXlXj.s.@.&XsXo.3 7 2 - :.G.lXlXlXlXlXlXkXyX>XY.Z.Z.z.k.k.zXzXzX",
"zXzXzXf.7.7.5.d.G.:XtXkXlXlXlXkXlXlXj.8.[.sXsX`.g 2 a ` V.#XlXlXlXlXlXlXkXyX>XF.C.C.C.z.f.zXzXzX",
"zXzXzXf.4.6.6.7.5.k.N.A.G.:XiXlXlXlXS.,.sXsXaX6X5Xh b u.T.-XlXlXlXgX4X=XY.F.P.A.k.z.d.6.g.zXzXzX",
"zXzXzXd.4.6.5.5.5.d.a.g.N.g.N.T.0XjXXXrXsXaX6X5X^.M U y.T.tXlXtXR.Y.Y.F.U.U.A.A.C.l.7.3.s.zXzXzX",
"zXzXzXs.3.6.4.5.5.5.w.w.5.j.F.U.R.9X9XsXaX6X5XO.N U 4.w.G.lXkXA.C.Y.A.Y.A.A.A.C.C.h.4.3.s.zXzXzX",
"zXzXzXs.3.3.3.4.4.5.5.5.5.N.U.F.V.5XsXsX6X.XE C R 5.w.D.hXlX,Xw.w.Z.U.A.A.Z.Z.C.z.4.4.3.s.zXzXzX",
"zXzXzXa.3.3.3.3.4.5.4.5.5.A.I.V.].sXaX6X`.!.,.#.g.G.<XlXlXlXdXa.5.h.A.U.A.V.C.C.a.4.3.3.w.zXzXzX",
"zXzXzXa.3.3.3.3.4.4.4.5.4.N.V.c.rXaX6X(.).9XjXlXlXlXlXkX,XdXlXOX4.e.Z.Z.Z.C.C.z.3.3. .} w.zXzXzX",
"zXzXzX7.} } 3.3.3.4.4.4.4.5.=.7XaX5X( ] B.0XlXlXlXlX<Xe.4.4.OXiXw.w.C.C.C.C.C.j.4.4.3.} 4.zXzXzX",
"zXzXzX6.} } } 3.3.3.3.3.3.Y }.aX_.Q &.p.Z.Y.lXlXlXlXe.4.4.4.4.w.g.4.V.C.C.n.z.d.3.f.} } w.zXzXzX",
"zXzXzX4.} } } } } 3.3.3.T ,.aX~.~ *.n.C.C.g.uXlXlXuX1.2.4.| 4. .4.4.j.M.n.j.z.| 3.w.} { 4.zXzXzX",
"zXzXzX4.[ } { } } } 3.T ' 8X! ~ *.n.C.C.e.1.*XlXlX;X1.3.| 4.| 4.| 2.f.j.j.j.w.}  .{ [ { 4.zXzXzX",
"zXzXzX4.} { } { { } { H  Xm D r.n.z.M.g.|  .n.lXlXn. .|  . .| | | | 4.j.j.f. .{ { { [ { 4.zXzXzX",
"zXzXzX| [ [ [ } { { L ] v D I z.j.j.s.| | | 3.kXkX1.} | { | | | | { | 4.4.| { { { { { {  .zXzXzX",
"zXzXzX| [ [ [ [ { I B n F I 2.g.h.e.| | { | { 0X1X{ { { | { | { { { } { { { { { { [ [ [ | zXzXzX",
"zXzXzX| [ [ [ [ [ [ K K { { 4.i.e.| { [ { [ { |.|.{ { | [ { { { { { [ { { [ [ [ [ [ [ [ | zXzXzX",
"zXzXzX| [ [ S [ [ [ [ [ [ [ 2.e.| [ [ [ [ [ [ q.q.[ [ [ [ [ [ [ [ [ [ [ I [ [ [ [ S [ S { zXzXzX",
"zXzXzX{ S S S P P P P [ [ P 1.w.[ [ [ P [ [ [ I [ [ [ [ I [ [ [ [ [ [ [ P P [ S [ S S S | zXzXzX",
"zXzXzXG P A A A S P S P S P I 1.P P P P P P P P P P P P P P P P P S P P P S P S S S A S G zXzXzX",
"zXzXzX: I S A A S S S S S S S P S S S A S S S P A A P A S S S S S S S S S A S S A S S { : zXzXzX",
"zXzXzXX : J { | { | 1.1.1.1.1.1.1.2.| 2.2.2.2.2.2.2.2.2.| 2.1.1.1.1.| 2.| | | | { { J : X zXzXzX",
"zXzXzX. @ & & = = = = e e e r t t t y y y u u u u u u y y y t t r r e e e e = = * * % @ . zXzXzX",
"zXzXzX  . O % # $ & = = = = = e e e r r t t t y y y t t t r e e e = = = = * # $ # % O .   zXzXzX",
"zXzXzXzXzX                                                                            zXzXzXzXzX",
"zXzXzXzXzXzXzXzXzXzXzXzXzXzXzXzXzXzXzXzXzXzXzXzXzXzXzXzXzXzXzXzXzXzXzXzXzXzXzXzXzXzXzXzXzXzXzXzX",
"zXzXzXzXzXzXzXzXzXzXzXzXzXzXzXzXzXzXzXzXzXzXzXzXzXzXzXzXzXzXzXzXzXzXzXzXzXzXzXzXzXzXzXzXzXzXzXzX"
};
