/* XPM */
static char *gcolor_[] = {
/* columns rows colors chars-per-pixel */
"48 48 256 2",
"   c #000000",
".  c #141315",
"X  c #1C1B1D",
"o  c #1F1E20",
"O  c #201F21",
"+  c #232124",
"@  c #272528",
"#  c #29272A",
"$  c #2B292C",
"%  c #2F2D31",
"&  c #7C2925",
"*  c #782E2A",
"=  c #653F23",
"-  c #73312E",
";  c #6E3D34",
":  c #733D3C",
">  c #314E1E",
",  c #2F5216",
"<  c #34581B",
"1  c #3A661E",
"2  c #3C4F25",
"3  c #3A5429",
"4  c #3D6A22",
"5  c #454E3F",
"6  c #4F403F",
"7  c #54423D",
"8  c #58483E",
"9  c #415633",
"0  c #46523E",
"q  c #4C543E",
"w  c #475C3A",
"e  c #43692C",
"r  c #406727",
"t  c #466D33",
"y  c #467234",
"u  c #433F44",
"i  c #483F42",
"p  c #444245",
"a  c #4C4144",
"s  c #464A43",
"d  c #494C46",
"f  c #4C454A",
"g  c #4B4B4B",
"h  c #474648",
"j  c #544444",
"k  c #5B4542",
"l  c #5E4A45",
"z  c #524649",
"x  c #544A4D",
"c  c #5B4B4B",
"v  c #4A5443",
"b  c #4D5A43",
"n  c #4E534B",
"m  c #4F5948",
"M  c #545440",
"N  c #5D5643",
"B  c #525E45",
"V  c #50554D",
"C  c #535C4C",
"Z  c #5A5B47",
"A  c #4F4C50",
"S  c #544D53",
"D  c #5D4E51",
"F  c #545454",
"G  c #5C5155",
"H  c #565A53",
"J  c #585D55",
"K  c #57535A",
"L  c #5A555C",
"P  c #5B5A5B",
"I  c #634A44",
"U  c #6A4C45",
"Y  c #634D4B",
"T  c #6C4E49",
"R  c #604640",
"E  c #704845",
"W  c #63514C",
"Q  c #6D524D",
"!  c #665445",
"~  c #655253",
"^  c #6B5452",
"/  c #645759",
"(  c #62585E",
")  c #695758",
"_  c #4F6143",
"`  c #536345",
"'  c #546847",
"]  c #55634B",
"[  c #59664F",
"{  c #566A49",
"}  c #596C4D",
"|  c #5A6346",
" . c #4A714B",
".. c #5A6553",
"X. c #5B6B51",
"o. c #5A6058",
"O. c #5E5961",
"+. c #625D65",
"@. c #645F68",
"#. c #5A6671",
"$. c #546876",
"%. c #566A78",
"&. c #66616A",
"*. c #6A656D",
"=. c #6D6771",
"-. c #6E6972",
";. c #656B76",
":. c #726C75",
">. c #746E79",
",. c #77717B",
"<. c #79737E",
"1. c #85291C",
"2. c #B63616",
"3. c #BA3215",
"4. c #B23916",
"5. c #BC3619",
"6. c #B53D19",
"7. c #B93A1A",
"8. c #943120",
"9. c #972F33",
"0. c #8C3C36",
"q. c #943334",
"w. c #903937",
"e. c #A03822",
"r. c #C3341B",
"t. c #CE2D20",
"y. c #D22C20",
"u. c #CF3523",
"i. c #CB3B23",
"p. c #CA3B25",
"a. c #D33327",
"s. c #B5431C",
"d. c #B44A1F",
"f. c #9C4020",
"g. c #B84A21",
"h. c #B75124",
"j. c #AB4723",
"k. c #C54324",
"l. c #CB4127",
"z. c #CF452D",
"x. c #CF4D2F",
"c. c #D1482D",
"v. c #D34B36",
"b. c #D04331",
"n. c #97565B",
"m. c #A57449",
"M. c #AB7856",
"N. c #B07C5E",
"B. c #B37F63",
"V. c #D35445",
"C. c #D95646",
"Z. c #D55E52",
"A. c #D75D57",
"S. c #D44B44",
"D. c #E35759",
"F. c #DC6054",
"G. c #D6685F",
"H. c #D9685F",
"J. c #CC6162",
"K. c #DA6A60",
"L. c #D76565",
"P. c #D7746E",
"I. c #DB746E",
"U. c #D16F70",
"Y. c #DB7E7C",
"T. c #E16962",
"R. c #E4716D",
"E. c #E67B78",
"W. c #4F862C",
"Q. c #51872C",
"!. c #54A42D",
"~. c #51A82D",
"^. c #5CA333",
"/. c #5CAA35",
"(. c #5EA638",
"). c #57A832",
"_. c #55B634",
"`. c #59B437",
"'. c #53B934",
"]. c #5CB439",
"[. c #56BD3C",
"{. c #59BC3C",
"}. c #58BA37",
"|. c #61AA37",
" X c #62A439",
".X c #62AA38",
"XX c #61B43A",
"oX c #5EBE42",
"OX c #62BA43",
"+X c #5CC044",
"@X c #5FC249",
"#X c #55C040",
"$X c #62C24B",
"%X c #61C047",
"&X c #66C652",
"*X c #6BC959",
"=X c #70CC5F",
"-X c #71CB60",
";X c #B8846C",
":X c #C6927D",
">X c #87D277",
",X c #26729B",
"<X c #2E759D",
"1X c #277AAA",
"2X c #317BA5",
"3X c #4D6E84",
"4X c #4E7388",
"5X c #507488",
"6X c #487C9A",
"7X c #7C7580",
"8X c #7E7882",
"9X c #807B85",
"0X c #857F8A",
"qX c #3E82A8",
"wX c #3481AE",
"eX c #3D89B3",
"rX c #73AC93",
"tX c #4888AC",
"yX c #5991B1",
"uX c #6E9AB6",
"iX c #7DA3BC",
"pX c #4C97C1",
"aX c #559CC4",
"sX c #5CA1C9",
"dX c #66A5CB",
"fX c #6BABCE",
"gX c #7CB3CE",
"hX c #6DAED3",
"jX c #7BB4D4",
"kX c #76B1D2",
"lX c #86808B",
"zX c #A8A8B8",
"xX c #DD8D8B",
"cX c #DF8887",
"vX c #CF9A87",
"bX c #D29D8C",
"nX c #DF9A9A",
"mX c #E48988",
"MX c #E09898",
"NX c #D7A497",
"BX c #D39EA1",
"VX c #DCADA9",
"CX c #90D584",
"ZX c #9ED599",
"AX c #A6D1AD",
"SX c #B7DCBA",
"DX c #E7C3BD",
"FX c #8AB7CF",
"GX c #82B8D5",
"HX c #B8B8C3",
"JX c #D3BDC2",
"KX c #9CC7CA",
"LX c #AED3C0",
"PX c #A8CDC9",
"IX c #DAC0C6",
"UX c None",
/* pixels */
"UXUXUXUXUXUXUXUXUXUXUXUXUXUXUXUXUXUXUXUXUXUXUXUXUXUXUXUXUXUXUXUXUXUXUXUXUXUXUXUXUXUXUXUXUXUXUXUX",
"UXUXUXUXUXUXUXUXUXUXUXUXUXUXUXUXUXUXUXUXUXUXUXUXUXUXUXUXUXUXUXUXUXUXUXUXUXUXUXUXUXUXUXUXUXUXUXUX",
"UXUXUXUXUXUXUXUXUXUXUXUXUXUXUXUXUXUXUXUXUXUXUXUXUXUXUXUXUXUXUXUXUXUXUXUXUXUXUXUXUXUXUXUXUXUXUXUX",
"UXUXUXUX:.9X0X0X0XlX0X8XlXlXlXlXlXlXlXlX0X0X0X8XlXlXlXlXlXlXlXlXlXlX0X9XlXlXlX0X0X0X9X:.UXUXUXUX",
"UXUXUX&.7X,.,.,.7X>.7X7X>.7X7X7X7X7X7X>.7X7X7X7X7X7X>.7X7X7X7X7X7X7X7X7X,.,.,.,.,.,.7X7X@.UXUXUX",
"UXUXUX7X>.>.,.,.>.7X>.>.7X7X>.7X7X7X7X>.7X>.7X;.>.>.7X7X7X7X7X>.>.7X>.7X7X,.,.,.>.,.>.>.7XUXUXUX",
"UXUXUX9X>.>.>.>.7X>.;.7X>.7X7X7X7X7X7X7X7X7X>.7X7X7X7X>.7X7X>.7X7X>.>.7X,.,.,.,.>.>.>.>.8XUXUXUX",
"UXUXUX8X>.>.>.>.>.>.7X>.>.7X7X8X>.7X>.7X>.7X7X7X;.7X7X7X>.>.7X7X7X,.7X,.7X>.,.,.>.>.>.>.8XUXUXUX",
"UXUXUX8X:.:.>.>.>.,.7X>.<.<.<.5X8X<.<.8X<.<.8X<.7X7X>.7X7X7X7X7X8X<.<.<.<.<.,.>.>.:.:.:.8XUXUXUX",
"UXUXUX8X-.:.:.>.>.>.,.7X<.<.<.N.<.<.<.<.<.<.<.<.7X7X7X7X7X>.>.7X<.<.<.<.<.,.,.>.:.:.:.:.8XUXUXUX",
"UXUXUX7X:.:.:.>.>.,.>.7X<.<.<.<.<.<.8X<.8X<.8X<.7X7X7X7X7X7X7X7X<.<.<.<.<.,.,.>.>.:.:.:.<.UXUXUX",
"UXUXUX<.=.=.:.:.>.>.,.,.<.<.<.<.<.<.<.<.<.<.<.<.>.7X7X>.7X>.7X7X<.<.<.<.<.,.,.>.:.-.=.:.<.UXUXUX",
"UXUXUX<.=.=.=.:.>.>.,.,.,.,.<.<.<.<.<.<.,.,.,.<.<.<.<.<.>.7X,.,.<.,.<.,.,.,.>.>.:.-.-.=.<.UXUXUX",
"UXUXUX,.=.=.=.:.:.>.,.>.,.,.,.,.<.<.,.,.>.;.%.5X3X$.#.:.>.,.,.,.,.,.,.,.,.>.>.:.:.-.=.=.,.UXUXUX",
"UXUXUX,.*.*.=.:.:.>.>.>.,.>.>.,.:.;.%.4XtXtXeXeXhXhXdXyXyX6X5X%.#.-.>.>.>.>.:.:.=.=.=.*.,.UXUXUX",
"UXUXUX>.*.*.=.=.-.:.:.>.>.:.#.3XqXqXwXwX<X<X<XwXfXkXkXjXjXjXjXkXgXrX .>.>.:.:.:.=.=.*.*.,.UXUXUX",
"UXUXUX:.@.*.*.=.=.:.:.:.,.n.JXHXFXtX,X,X,X2X,X1XsXdXfXfXfXGXKXAXCX@Xy :.:.:.:.-.*.*.*.&.:.UXUXUX",
"UXUXUX:.@.@.*.=.=.=.:.:.:.9.D.L.G.bXVXzXuX2X,X1XpXaXdXFXLXZX>X-X=X#Xy :.:.:.-.-.*.*.&.&.:.UXUXUX",
"UXUXUX:.@.@.*.*.*.=.-.-.-.9.E.nXnXcXL.L.Y.VXJXzXGXPXSXCX*X&X&X&X*X#Xy -.-.-.=.*.&.&.&.&.:.UXUXUX",
"UXUXUX-.@.@.@.*.*.=.-.-.-.9.E.mXxXxXxXxXmXL.A.K.DX>XOX@X@X@X&X&X&X#Xy =.-.=.*.*.&.&.+.&.=.UXUXUX",
"UXUXUX*.+.+.@.@.*.*.*.=.*.q.R.:XY.Y.Y.:XE.E.E.a.VX&X[.{.+XoX@X@X$X[.y =.*.=.*.&.&.&.+.+.=.UXUXUX",
"UXUXUX*.O.+.+.@.&.&.*.*.*.q.T.P.P.P.I.I.I.I.S.y.NXOX[.[.oXoXoXoX%X{.t =.*.*.&.&.&.&.+.+.*.UXUXUX",
"UXUXUX*.+.+.+.&.&.&.*.*.*.w.A.G.G.G.G.K.L.A.y.y.NX+X'.'.'.[.[.oXoX}.y *.*.*.&.&.+.+.O.O.*.UXUXUX",
"UXUXUX*.L +.P +.+.&.&.&.*.w.C.Z.Z.Z.Z.Z.A.a.u.u.bXXX'.'._.'._.'.}.[.t &.&.&.&.&.O.+.O.O.&.UXUXUX",
"UXUXUX&.P O.O.O.+.+.+.@.@.q.C.V.V.V.V.V.z.u.u.u.bXOX_._._.`._._.'.].t +.+.@.@.+.O.O.O.O.&.UXUXUX",
"UXUXUX+.O.O.O.O.+.+.+.+.@.w.v.v.v.v.x.z.i.i.u.t.:XOX`._.`.`.`.].].].t P O.O.O.O.O.O.L L &.UXUXUX",
"UXUXUX+.K O.O.O.+.+.+.+.@.0.b.z.c.l.p.i.i.5.3.3.;X/.~.).`.`.].].].].e P K P F K K L K L +.UXUXUX",
"UXUXUX+.K K L L O.L +.+.+.0.c.c.l.k.i.5.3.3.5.5.;X/.~.!.!./.(.].XXXXe C H F F F F K K K +.UXUXUX",
"UXUXUX+.K K K O.O.+.L +.$.f.x.k.p.6.2.2.2.2.2.5.B.^.!.!.^.)././.].XXe V C n A H L P K K +.UXUXUX",
"UXUXUXO.S K K K L L +./ O.f.k.s.4.4.4.4.6.6.6.g.N. X!.^.^.^././.|.4 3 b b ] o.J J K F F O.UXUXUX",
"UXUXUXO.S K S K L / / / ( * 8.k.s.4.6.6.6.s.6.s.M. X^.^..X/.XXQ.< 9 w ] X.X.....J H H F P UXUXUX",
"UXUXUXL S S S K G / ~ ) ^ ^ : & 8.g.g.s.s.s.g.s.M. X^.^. X X1 3 9 _ X.X.X.X.X.[ H C H F P UXUXUX",
"UXUXUXL S S S D D ~ ~ T ^ Q Q Q E 1.1.g.g.g.h.g.m. X X.XQ.< 3 t [ } } X.X...] ..H C V V P UXUXUX",
"UXUXUXK x x S D D ~ ~ ~ ^ Q Q Q Q Q Q * 1.j.h.h.m. X^.1 > w { } X.} } } ] ....] ] n V n H UXUXUX",
"UXUXUXG A x x c c D Y ~ ~ T Q Q Q T T T T - 1.8.m.Q., 9 { { } ' { [ [ ] ] ] H ] V V V n K UXUXUX",
"UXUXUXS z z x c c Y Y Y Y T ~ T T T T T T T T ; = 2 ` ' { { ' ' ] ] ] ] ] C m n n n n g H UXUXUX",
"UXUXUXS f f z x x c c c Y Y Y Y Y T T T U U U ! ! | | ' ' ' ] ] ] ] ] m H m n n v d g g F UXUXUX",
"UXUXUXS f f f z i z c l c l l I I I I I U U U ! 8 | ` ' ` ` B ` m b m n n v n v g g h h A UXUXUX",
"UXUXUXA p h h f z j z x j c j l k I I I R I I I N | | ' _ ` b b b m v v v n d h h h h h g UXUXUX",
"UXUXUXA i i i i z i i z j j j j k 8 8 R R R R I q q q q w b b v v v v v v g h s s h p p A UXUXUX",
"UXUXUXu u u u i i i i i i j i k j k 7 k k k 8 8 8 q q q 0 q v v v s s s s s h p p p u p u UXUXUX",
"UXUXUX% p u u u u u i i i i i i i 7 7 7 7 7 7 7 q q 0 0 0 0 5 0 5 5 s s p p p p u u u p % UXUXUX",
"UXUXUXo % u f A A S f A x x Y c c c c c I Y Y W ! C B C C m V V n n n A d g g g h h u % o UXUXUX",
"UXUXUX. o o + + O # # # @ # # # # # # # # # # # $ $ $ $ $ $ # # @ $ @ @ # @ + @ @ + o o . UXUXUX",
"UXUXUX  . X X o o o o O O O O O O + O + O + + + + + + + + + + O + O o O O o o o o X X .   UXUXUX",
"UXUXUXUXUX                                                                            UXUXUXUXUX",
"UXUXUXUXUXUXUXUXUXUXUXUXUXUXUXUXUXUXUXUXUXUXUXUXUXUXUXUXUXUXUXUXUXUXUXUXUXUXUXUXUXUXUXUXUXUXUXUX",
"UXUXUXUXUXUXUXUXUXUXUXUXUXUXUXUXUXUXUXUXUXUXUXUXUXUXUXUXUXUXUXUXUXUXUXUXUXUXUXUXUXUXUXUXUXUXUXUX"
};
