/* XPM */
static char *gnome_terminal[] = {
/* columns rows colors chars-per-pixel */
"48 48 116 2 ",
"   c black",
".  c #070707",
"X  c gray3",
"o  c #090909",
"O  c gray4",
"+  c #0B0B0B",
"@  c #0C0C0C",
"#  c gray5",
"$  c #0E0E0E",
"%  c gray6",
"&  c #101010",
"*  c #111111",
"=  c gray7",
"-  c gray8",
";  c #151515",
":  c #191919",
">  c gray10",
",  c #1B1B1B",
"<  c gray11",
"1  c #1D1D1D",
"2  c #1E1E1E",
"3  c gray12",
"4  c #202020",
"5  c gray13",
"6  c #222222",
"7  c #232323",
"8  c gray14",
"9  c #252525",
"0  c gray15",
"q  c #272727",
"w  c #282828",
"e  c gray16",
"r  c #2A2A2A",
"t  c gray17",
"y  c #2C2C2C",
"u  c #2D2D2D",
"i  c gray18",
"p  c #2F2F2F",
"a  c gray19",
"s  c #313131",
"d  c #323232",
"f  c gray20",
"g  c #343434",
"h  c #353535",
"j  c gray21",
"k  c #373737",
"l  c gray22",
"z  c #393939",
"x  c #3A3A3A",
"c  c gray23",
"v  c #3C3C3C",
"b  c gray24",
"n  c #3E3E3E",
"m  c #3F3F3F",
"M  c gray25",
"N  c #414141",
"B  c gray26",
"V  c #434343",
"C  c #444444",
"Z  c gray27",
"A  c #464646",
"S  c gray28",
"D  c #484848",
"F  c #494949",
"G  c gray29",
"H  c #4B4B4B",
"J  c #4C4C4C",
"K  c gray30",
"L  c #4E4E4E",
"P  c gray31",
"I  c #505050",
"U  c #515151",
"Y  c gray32",
"T  c #535353",
"R  c gray33",
"E  c #555555",
"W  c #565656",
"Q  c gray34",
"!  c #585858",
"~  c gray35",
"^  c #5A5A5A",
"/  c #5B5B5B",
"(  c gray36",
")  c #5D5D5D",
"_  c gray37",
"`  c #5F5F5F",
"'  c #606060",
"]  c gray38",
"[  c #626262",
"{  c gray39",
"}  c #656565",
"|  c gray40",
" . c #676767",
".. c #686868",
"X. c DimGray",
"o. c #6A6A6A",
"O. c gray42",
"+. c #6D6D6D",
"@. c gray43",
"#. c #6F6F6F",
"$. c #727272",
"%. c #747474",
"&. c #767676",
"*. c gray47",
"=. c #797979",
"-. c gray48",
";. c gray58",
":. c #959595",
">. c #ACACAC",
",. c gray77",
"<. c #C5C5C5",
"1. c LightGray",
"2. c gray89",
"3. c #EAEAEA",
"4. c gray100",
"5. c None",
/* pixels */
"5.5.5.5.5.5.5.5.5.5.5.5.5.5.5.5.5.5.5.5.5.5.5.5.5.5.5.5.5.5.5.5.5.5.5.5.5.5.5.5.5.5.5.5.5.5.5.5.",
"5.5.5.5.5.5.5.5.5.5.5.5.5.5.5.5.5.5.5.5.5.5.5.5.5.5.5.5.5.5.5.5.5.5.5.5.5.5.5.5.5.5.5.5.5.5.5.5.",
"5.5.5.5.5.5.5.5.5.5.5.5.5.5.5.5.5.5.5.5.5.5.5.5.5.5.5.5.5.5.5.5.5.5.5.5.5.5.5.5.5.5.5.5.5.5.5.5.",
"5.5.5.5.n B Z D D K K K E E E / ( [ [ } } ..O...-.-.-.-.%.%.%.$.$.O.O.......} } [ [ ( I 5.5.5.5.",
"5.5.5.z z d d j j z n B B B Z D D K K I I E E E [ ........} [ [ [ ( ( / / / E E I I K E D 5.5.5.",
"5.5.5.D z j j d j j z z n B B B Z Z D D K D D K I [ } [ [ [ ( ( ( ( / / E E I E I I I I / 5.5.5.",
"5.5.5.K z j d j j z z z z n n B B B B Z Z D Z D D ( [ ( ( / ( / / E / E E E I I I I I K / 5.5.5.",
"5.5.5.I n j j z B z z z z n z n n B B B Z B Z Z Z E ( ( / / / / / E E E E I E I I I K K / 5.5.5.",
"5.5.5.I n z j D 1...n n n n B B B B Z Z D D D K D I [ ( ( ( ( ( / / E E E E E E I I K K / 5.5.5.",
"5.5.5.E n z j n ;.3.>.K n n n B B B Z Z Z Z D D D D ( ( ( ( / / / E E I E E I I I K K K ( 5.5.5.",
"5.5.5.E B z j j z / <.2.K n n n B B Z Z Z D D D D D / / ( ( / E E E E E I I I I K K K K / 5.5.5.",
"5.5.5.E B z j z n ( <.2.K B B B Z Z D D D K K K I K E [ ( ( ( / / / E E E I I I I K D K / 5.5.5.",
"5.5.5.E B z j n :.3.>.K B n B B Z B Z Z D D D D D D K ( / / / E E E E E I I I I K K D K / 5.5.5.",
"5.5.5.E B n j D 1.O.B n Z E E / / / K D D K I I I K K ( ( ( / / / E E I E I I K K K D K / 5.5.5.",
"5.5.5.E B z j n B z z n K 4.4.4.4.4.E Z Z Z D D D D D I E / E E E E E I I K K K K D D K E 5.5.5.",
"5.5.5.I n z d j j z z z B I E E E E Z Z Z Z Z Z Z Z Z D E E I E E I I I K K K K D D D K / 5.5.5.",
"5.5.5.K n j d j z z z n n B B B Z Z Z D D D K D K D D D / / E E E I I I I K K K D D D K / 5.5.5.",
"5.5.5.K n j j j j j z z z z z n n n B B B B B B Z B B B K I I I I I K K K K D D D D D D E 5.5.5.",
"5.5.5.D z j d j j z z z n n n B B B B Z Z Z D Z Z D Z Z D E E I I I I I K D D D Z Z Z D / 5.5.5.",
"5.5.5.Z z j d j j j j z z z z n z n n n n n B n B n B n B I K K K D K D D D D D Z Z Z D E 5.5.5.",
"5.5.5.Z j d d d d j j j z z z z n z z n n n n n n n n n n D K D D D D D D D Z Z Z B B Z E 5.5.5.",
"5.5.5.B j d d d j j j j z z z n n B B B B B B B B B B B n Z K K K K K D D Z Z B B B B Z E 5.5.5.",
"5.5.5.B d d i d d d j j j j j j j z z z z z n n n z z z z n D D D D Z Z Z Z B B B n B B E 5.5.5.",
"5.5.5.n d i i d d d j j j z z z z n n n n n n n B n n n n B D D D D Z B Z B B B B n n B I 5.5.5.",
"5.5.5.n i i i i d d d d d j j j j j j z j z j z j z z j z j n Z B B B B n B n n n n n B I 5.5.5.",
"5.5.5.z i t i i i i i d d d d d j j j j j j j j j j j j j j j B B B B n n n n n z z n n K 5.5.5.",
"5.5.5.j t t t i i d d d d d j j j j z z z n z n z z n z z z z B B B B B n n n n n z z z K 5.5.5.",
"5.5.5.j q t t i t i i i i d d d d d d d d d d d j d d d j d d z n n z z n z z j z j z z D 5.5.5.",
"5.5.5.d q q t t t i i i i d d d j j j j j z z z z z j j j j j j n n n n z n z j j j j z Z 5.5.5.",
"5.5.5.d q t q t t t t i i i i i i i i d i d d i i i d d d i i d z z j j z j j j j d d j B 5.5.5.",
"5.5.5.d 7 q q q t q t t t i i i i i i i i i d i i d i i i i i i j j j j j d d d d d d d n 5.5.5.",
"5.5.5.i q q q q q t t t t i i i i d d d d j d d j d j d d d d i d j j j d j d d d i i d n 5.5.5.",
"5.5.5.i 7 7 q q q q q q t q t t t t t t t t i t t i i t t t t t t d i d d i i i i i t i z 5.5.5.",
"5.5.5.i 7 7 7 7 7 q q q t t t t t i i i i i i i i i i i i i i t t d d d d i i i i i t t j 5.5.5.",
"5.5.5.t 7 7 7 7 7 7 q q 7 q q q q q t q t q t q q t t q q q q q q t i t t t t t t t q t j 5.5.5.",
"5.5.5.t < 7 < 7 7 7 7 7 7 q 7 q 7 q q q q q q q q q q q q q q q q q t t t q t q q q q q d 5.5.5.",
"5.5.5.t < < 7 7 7 7 7 7 q q q q q q t q q q t t t t q t q q q q q q t q t q q q q 7 q 7 i 5.5.5.",
"5.5.5.q < < < 7 < < 7 7 < 7 7 7 7 7 7 7 q 7 7 7 7 7 7 7 7 7 7 7 7 7 q q q 7 q 7 7 7 7 7 t 5.5.5.",
"5.5.5.7 < < < < < 7 7 7 7 7 7 7 q 7 7 q 7 q q q q q q q q q 7 7 7 q 7 7 7 q 7 7 7 < 7 < t 5.5.5.",
"5.5.5.q < < < < < < < < < < 7 < < 7 < 7 7 < 7 7 < 7 < 7 7 < < 7 < < < 7 7 < < 7 7 < < < q 5.5.5.",
"5.5.5.< ; , , , < < < < < 7 < < < 7 < < 7 < < < < 7 < < < 7 7 < 7 < < 7 7 < < , < < , , 7 5.5.5.",
"5.5.5.* < , , ; , , , , < < < < < < < 7 < 7 7 < 7 < 7 7 7 < < < < < < < , < , , , , , 7 * 5.5.5.",
"5.5.5.+ ; 7 q t t t t i i i d d d d d d j d j j d d j d d d d d i d i i t t t t q q 7 * + 5.5.5.",
"5.5.5.. + # # # # # # # * # * * * * * * * * * * * * * * * # * * * # * # * # * # # # + + . 5.5.5.",
"5.5.5.  . + + + + + + # # # # # # # * # # # * # # * # # * # # # # # # # # + + + + + + .   5.5.5.",
"5.5.5.5.5.                                                                            5.5.5.5.5.",
"5.5.5.5.5.5.5.5.5.5.5.5.5.5.5.5.5.5.5.5.5.5.5.5.5.5.5.5.5.5.5.5.5.5.5.5.5.5.5.5.5.5.5.5.5.5.5.5.",
"5.5.5.5.5.5.5.5.5.5.5.5.5.5.5.5.5.5.5.5.5.5.5.5.5.5.5.5.5.5.5.5.5.5.5.5.5.5.5.5.5.5.5.5.5.5.5.5."
};
