/* XPM */
static char *xchat[] = {
/* columns rows colors chars-per-pixel */
"48 48 177 2",
"   c #000000",
".  c #2A1E13",
"X  c #48331F",
"o  c #573E2A",
"O  c #583E2A",
"+  c #55741E",
"@  c #5B7C1D",
"#  c #62442D",
"$  c #714E2F",
"%  c #74502F",
"&  c #6E4D33",
"*  c #724F33",
"=  c #765131",
"-  c #7B5332",
";  c #5D7D21",
":  c #696D2D",
">  c #6E7030",
",  c #815634",
"<  c #855935",
"1  c #8A5C36",
"2  c #8E5F38",
"3  c #936139",
"4  c #5F801F",
"5  c #74A71A",
"6  c #77A91C",
"7  c #79AB1E",
"8  c #638523",
"9  c #668A24",
"0  c #698E25",
"q  c #668629",
"w  c #688729",
"e  c #67882C",
"r  c #6C8D2A",
"t  c #6D9424",
"y  c #6F9825",
"u  c #6F922A",
"i  c #709627",
"p  c #729A27",
"a  c #71962B",
"s  c #759C2A",
"d  c #789E2C",
"f  c #6E8E31",
"g  c #739433",
"h  c #769934",
"j  c #7B9D33",
"k  c #76923F",
"l  c #7D9E3C",
"z  c #7CAD22",
"x  c #77A02A",
"c  c #7AA32D",
"v  c #7EAA2E",
"b  c #7EB024",
"n  c #7EA432",
"m  c #7FA438",
"M  c #779243",
"N  c #7C964E",
"B  c #7A8E54",
"V  c #7F905E",
"C  c #80AF27",
"Z  c #80AC2E",
"A  c #82B425",
"S  c #86B926",
"D  c #83B42A",
"F  c #87B82B",
"G  c #8ABC2C",
"H  c #81A635",
"J  c #83AC34",
"K  c #81A53B",
"L  c #86AC39",
"P  c #89AF3A",
"I  c #85B134",
"U  c #89B435",
"Y  c #8CBB33",
"T  c #86B139",
"R  c #8CB43C",
"E  c #8EBA39",
"W  c #91BF36",
"Q  c #91B73F",
"!  c #92BB3D",
"~  c #8EC12D",
"^  c #91C42E",
"/  c #8FC030",
"(  c #92C432",
")  c #96C932",
"_  c #9ACD35",
"`  c #94C23C",
"'  c #99C73F",
"]  c #9DCE3A",
"[  c #9ED136",
"{  c #9FD239",
"}  c #A2D43C",
"|  c #A6D93D",
" . c #A9DC3E",
".. c #849D52",
"X. c #82945F",
"o. c #849A59",
"O. c #87AC40",
"+. c #8AAE43",
"@. c #8CB442",
"#. c #94BD41",
"$. c #8EA75E",
"%. c #8FA85C",
"&. c #90AE52",
"*. c #9DBD5B",
"=. c #859763",
"-. c #879864",
";. c #889A64",
":. c #8C9E6C",
">. c #94AB67",
",. c #9CBB60",
"<. c #9BB16F",
"1. c #9AAC76",
"2. c #96A47A",
"3. c #9DAC7C",
"4. c #9FB575",
"5. c #A5BD74",
"6. c #96C141",
"7. c #99C342",
"8. c #9DCB42",
"9. c #A1CE46",
"0. c #A5D443",
"q. c #A7D842",
"w. c #ABDC43",
"e. c #A5D24A",
"r. c #A9D54C",
"t. c #ADDD4A",
"y. c #AEDB51",
"u. c #ADD559",
"i. c #B1DE54",
"p. c #B4DD5E",
"a. c #AEE142",
"s. c #AFE148",
"d. c #B1E445",
"f. c #B0E249",
"g. c #B2E055",
"h. c #B6E358",
"j. c #B9E65A",
"k. c #BFEA5F",
"l. c #ABC37B",
"z. c #9BA882",
"x. c #A2AE8A",
"c. c #A2B381",
"v. c #A9B987",
"b. c #A5B389",
"n. c #AAB98E",
"m. c #B2BF97",
"M. c #B3BBA2",
"N. c #B6CE87",
"B. c #B0C589",
"V. c #BCCF95",
"C. c #B7C59B",
"Z. c #BBCB9A",
"A. c #BED296",
"S. c #BFD09B",
"D. c #B8C0A9",
"F. c #BEC5B1",
"G. c #C3D1A7",
"H. c #C7D4AB",
"J. c #C2CAB3",
"K. c #C7CFB8",
"L. c #C8CDBE",
"P. c #C7D0B5",
"I. c #CDD7B7",
"U. c #CAD1BB",
"Y. c #CDD3C2",
"T. c #D0D5C4",
"R. c #D3D9C5",
"E. c #D1D6C8",
"W. c #D6DACD",
"Q. c #D9DDD1",
"!. c #DDE1D4",
"~. c #E1E3DE",
"^. c #E6E6E6",
"/. c #ECECEC",
"(. c #F1F1F1",
"). c #FAFAFA",
"_. c None",
/* pixels */
"_._._._._._._._._._._._._._._._._._._._._._._._._._._._._._._._._._._._._._._._._._._._._._._._.",
"_._._._._._._._._._._._._._._._._._._._._._._._._._._._._._._._._._._._._._._._._._._._._._._._.",
"_._._._._._._._._._._._._._._._._._._._._._._._._._._._._._._._._._._._._._._._._._._._._._._._.",
"_._._._.*.p.k.k.k.k.k.k.k.k.k.k.k.k.k.k.k.k.k.k.k.k.k.k.k.k.k.k.k.k.k.k.k.k.k.k.k.k.p.*._._._._.",
"_._._.&.d.d.d.d.d.d.d.d.d.d.d.d.d.d.d.d.d.d.d.d.d.d.d.d.d.d.d.d.d.d.d.d.d.d.d.d.d.d.d.d.#._._._.",
"_._._.y.d.d.a.d. .d.d.d.d.d.d.d.d.d.d.d.d.d.d.d.d.d.d.d.d.d.d.d.d.d.d.d.d.d.a.d.d.d.a.d.u._._._.",
"_._._.k.a.a.a.a.a.d.d.d.d.d.f.f.d.d.f.d.d.d.d.d.d.d.f.f.f.d.d.d.d.f.d.d.d.d.a.d.a.a.a.a.j._._._.",
"_._._.d.a. .a.a.a.a.a.d.f.f.s.f.f.f.f.f.r.9.! Q ! ! 9.q.f.f.d.h.f.s.s.d.a.a.a.a.a.a. . .j._._._.",
"_._._.j.a. .a.a.a.a.a.f.f.f.f.f.t.! L j H H L R Q L P H H P ! f.f.f.f.f.s.w.w.d.a.a.a. .j._._._.",
"_._._.h. . . .a.w.w.s.t.f.f.r.Q j H P Q Q ! ! #.! ! ! 7.Q Q P H Q r.t.f.t.f.d.w. . . . .h._._._.",
"_._._.g. .|  .w.w.t.t.t.t.! h K P Q Q Q #.#.#.#.' #.#.#.#.9.7.Q R K 7.t.t.w.w.q.w. . . .i._._._.",
"_._._.i.|  . .q.q.w.w.t.K h L R Q Q Q #.Q #.#.#.#.#.7.#.#.#.#.7.#.#.L P t.t.t.t.q. .| | i._._._.",
"_._._.y.| | | q.w.w.r.j j R @.Q Q #.@.Q Q 5.).).I.Q ! l.).).H.#.7.7.7.P L r.w.w. .| | | y._._._.",
"_._._.y.} | } q.0.w.j j P R R R R R E Q Q C.(.(.>.Q ! C.(.(.%.#.6.7.7.6.L L 0.w.q.| } } y._._._.",
"_._._.y.} } } | q.R a P P P R R R R R #.P T.(.(.K Q Q R.(./.K #.7.6.7.7.! L Q q.} } } } i._._._.",
"_._._.r.{ } } | 8.f H P P R P @.R R R R L /.(.T.H Q @./.(.L.R #.! 6.6.6.` Q j ] | } } } r._._._.",
"_._._.r._ } { } H d L L L P L P ,.Z.V.V.H.(.(.U.A.A.H.(.(.P.A.A.N.W ! ` ! ` H U } { { { r._._._.",
"_._._.r.} ] { } r n J L L L P L v.(.(.(.(.(./.(.(.(.(.(./.(.(.(.~.P ! ! ! ` Q d ] { [ [ r._._._.",
"_._._.e._ _ ] W r H L J L L L J 3.(.(.(.(./.(./.(.(.(.(.(.(.(.(.E.L W ! ! ! W H ` _ _ [ e._._._.",
"_._._.0._ _ _ J u H H J J J J K M =.=.:.(./.E.-.;.:./.(.Y.;.;.;.o.H ! ! ! ! W Z U _ _ _ e._._._.",
"_._._.0._ ) _ Z i H c Z J n J J n j j <././.b.n n 5././.c.H H J H R W E E ! E Z I [ [ ) 9._._._.",
"_._._.9.) ) _ c u H H H m J J J J J J m././.o.L J D././...L U U U E R E E U E Z J ) ) ) 9._._._.",
"_._._.8.^ ) ) I r n c H n n n B.Z.Z.Z.Q././.Z.Z.Z.Q././.Z.S.S.,.U U E U U U E d U ) ) ) 9._._._.",
"_._._.8.( ( ) W 8 d c c n n h W./.(././././.(.(./././././.(./.c.L U U E U U I a W ^ ^ ^ 9._._._.",
"_._._.8.^ ^ ( ) q a c c n n a E.^././.^./././././././.^./././.2.J U U U U U Z d ) ^ ^ ~ 8._._._.",
"_._._.' ~ ~ ( ( m r x c n d a B V V M./.^.z.V X.M././.2.X.X.X.k J I I I U D c H ( ^ ~ ~ 7._._._.",
"_._._.7.~ ~ ~ ( ` q s x d x d a a a J./.^.f s a U.^.^.a d d d c L J I I I Z u ! ( ~ ~ ~ ' _._._.",
"_._._.' G ^ G Y / m q s d c c c n a !./.L.a J j ^./.D.d J Z J J D J Z Z Z i P W ( G ~ G ' _._._.",
"_._._.` G ~ G ~ / ` h 9 s x s d d $.^.^.x.s x >.^.^.3.d v v Z Z v J J v a h ` ( G ~ G G ` _._._.",
"_._._./ S G G G G / ` f 0 a x x s b.^.^.o.x x n.^.^.N x v v c v v v v p h ` Y G Y G S G ` _._._.",
"_._._.` G S G G G Y Y E g 8 u s a ; ; + 9 x d ; + + 0 v c c v v c x t h ` Y G G G G S S ` _._._.",
"_._._.Y S S S S G G Y Y E +.q 0 a y y u s x x x s d s v x v x s y r +.` G Y G G S G S S ` _._._.",
"_._._.Y A S A S S S G Y G U R 4 y y s y s p s x x p x p y y 0 e l 6.v Y F F F ~ F b S S ~ _._._.",
"_._._.Y A A A S S S D G D Y y 8 y y y 9 8 9 9 0 0 0 9 9 e g l 6.Y F F Y F ~ F v S S b S F _._._.",
"_._._.Y A A A A A D D D D S 8 0 y t 4 g +.@.m m l m m @.6./ F ~ F F F F / v b b b b S b / _._._.",
"_._._.I A z z A A A A D D y 4 9 8 4 l E b v v ~ I b ~ b ~ v b v b F v b b b F b b b b b I _._._.",
"_._._.D b z A b b b b b t + @ + e @.b F b I b b b b b b b v b b b F b b b b b b b z z b I _._._.",
"_._._.D 7 7 7 7 b v z u q u n R v b b b b b b b v b b b b F b b b b b b b b z z 7 z 7 7 b _._._.",
"_._._.v 7 7 6 7 6 7 b b v z z z z z z z b b b z b b z z b z z z b z z z b z z z 7 7 6 7 D _._._.",
"_._._.D 6 6 6 6 6 6 6 6 6 z 6 z 6 z 6 z z z 6 z b z 7 7 z z 7 7 z z z 5 z 6 6 6 6 6 6 z b _._._.",
"_._._.d 5 5 6 6 6 6 6 6 6 6 6 6 z 5 6 z 5 z 6 6 6 6 6 6 6 6 6 6 6 6 6 6 7 5 6 5 6 5 6 6 s _._._.",
"_._._.: z 5 5 6 5 5 5 5 5 6 5 6 5 5 5 5 5 5 5 6 6 5 6 6 5 6 6 5 6 6 6 6 5 5 5 5 5 5 5 z : _._._.",
"_._._.X : j v b b v T T T v v T I I J T m T T T T T T T T T T J v v I v I v J Z b b n > X _._._.",
"_._._.. # & = = - - - - - < < < 1 1 2 2 2 2 3 3 3 3 2 2 1 1 1 1 < 1 < , , - - - = = & # . _._._.",
"_._._.  . O & % = = = - - - - < , , < < 1 1 1 2 1 1 1 1 1 < , , - - - - = = = % * & O .   _._._.",
"_._._._._.                                                                            _._._._._.",
"_._._._._._._._._._._._._._._._._._._._._._._._._._._._._._._._._._._._._._._._._._._._._._._._.",
"_._._._._._._._._._._._._._._._._._._._._._._._._._._._._._._._._._._._._._._._._._._._._._._._."
};
