<?xml version="1.0" encoding="UTF-8" standalone="no"?>
<!-- Created with Inkscape (http://www.inkscape.org/) -->

<svg
   version="1.1"
   id="svg2"
   width="32"
   height="32"
   viewBox="0 0 32 32"
   sodipodi:docname="color-picker.svg"
   xml:space="preserve"
   inkscape:version="1.2.1 (9c6d41e410, 2022-07-14, custom)"
   xmlns:inkscape="http://www.inkscape.org/namespaces/inkscape"
   xmlns:sodipodi="http://sodipodi.sourceforge.net/DTD/sodipodi-0.dtd"
   xmlns="http://www.w3.org/2000/svg"
   xmlns:svg="http://www.w3.org/2000/svg"><defs
     id="defs6" /><sodipodi:namedview
     id="namedview4"
     pagecolor="#505050"
     bordercolor="#ffffff"
     borderopacity="1"
     inkscape:showpageshadow="0"
     inkscape:pageopacity="0"
     inkscape:pagecheckerboard="1"
     inkscape:deskcolor="#505050"
     showgrid="false"
     inkscape:zoom="25.53125"
     inkscape:cx="15.980416"
     inkscape:cy="16"
     inkscape:current-layer="g8"><inkscape:grid
       type="xygrid"
       id="grid356"
       originx="0"
       originy="0" /></sodipodi:namedview><g
     inkscape:groupmode="layer"
     inkscape:label="Image"
     id="g8"><path
       style="fill:#fefefe;stroke-width:0.199999"
       d="M 2,31 V 30 H 1 0 v -3 -3 h 1 1 v -1 -1 h 1 1 v -1 -1 h 1 1 v -1 -1 h 1 1 v -1 -1 h 1 1 v -1 -1 h 1 1 v -1 -1 h 1 1 V 11 10 H 13 12 V 9 8 h 1 1 V 7 6 h 2 2 V 5 4 h 1 1 V 3 2 h 1 1 V 1 0 h 3 3 v 1 1 h 1 1 v 1 1 h 1 1 v 3 3 h -1 -1 v 1 1 h -1 -1 v 1 1 h -1 -1 v 2 2 h -1 -1 v 1 1 h -1 -1 v -1 -1 h -1 -1 v 1 1 h -1 -1 v 1 1 h -1 -1 v 1 1 h -1 -1 v 1 1 h -1 -1 v 1 1 h -1 -1 v 1 1 H 9 8 v 1 1 H 5 2 Z m 6,-2 v -1 h 1 1 v -1 -1 h 1 1 v -1 -1 h 1 1 v -1 -1 h 1 1 v -1 -1 h 1 1 v -1 -1 h 1 1 v -1 -1 h 1 1 v 1 1 h 1 1 v -2 -2 h 1 1 v -1 -1 h 1 1 v -1 -1 h 1 1 V 7 4 H 29 28 V 3 2 h -3 -3 v 1 1 h -1 -1 v 1 1 h -1 -1 v 1 1 h -2 -2 v 1 1 h 1 1 v 1 1 h -1 -1 v 1 1 h -1 -1 v 1 1 h -1 -1 v 1 1 H 9 8 v 1 1 H 7 6 v 1 1 H 5 4 v 1 1 H 3 2 v 3 3 H 5 8 Z M 4,26 v -2 h 1 1 v -1 -1 h 1 1 v -1 -1 h 1 1 v -1 -1 h 1 1 v -1 -1 h 1 1 v -1 -1 h 1 1 v -1 -1 h 1 1 v 1 1 h 1 1 v 1 1 h -1 -1 v 1 1 h -1 -1 v 1 1 h -1 -1 v 1 1 h -1 -1 v 1 1 h -1 -1 v 1 1 H 9 8 v 1 1 H 6 4 Z M 22,5 V 4 h 1 1 v 1 1 h -1 -1 z"
       id="path398" /><path
       d="m 2,27 v -3 h 1 1 v -1 -1 h 1 1 v -1 -1 h 1 1 v -1 -1 h 1 1 v -1 -1 h 1 1 v -1 -1 h 1 1 v -1 -1 h 1 1 V 11 10 H 15 14 V 9 8 h 2 2 V 7 6 h 1 1 V 5 4 h 1 1 V 3 2 h 3 3 v 1 1 h 1 1 v 3 3 h -1 -1 v 1 1 h -1 -1 v 1 1 h -1 -1 v 2 2 h -1 -1 v -1 -1 h -1 -1 v 1 1 h -1 -1 v 1 1 h -1 -1 v 1 1 h -1 -1 v 1 1 h -1 -1 v 1 1 h -1 -1 v 1 1 H 9 8 v 1 1 H 5 2 Z m 6,0 v -1 h 1 1 v -1 -1 h 1 1 v -1 -1 h 1 1 v -1 -1 h 1 1 v -1 -1 h 1 1 v -1 -1 h 1 1 v -1 -1 h -1 -1 v -1 -1 h -1 -1 v 1 1 h -1 -1 v 1 1 h -1 -1 v 1 1 h -1 -1 v 1 1 H 9 8 v 1 1 H 7 6 v 1 1 H 5 4 v 2 2 H 6 8 Z M 24,5 V 4 h -1 -1 v 1 1 h 1 1 z"
       id="path394"
       style="fill:#000000;stroke-width:0.199999" /></g></svg>
