/* XPM */
static char *terminal[] = {
/* columns rows colors chars-per-pixel */
"24 24 105 2 ",
"   c black",
".  c gray3",
"X  c #151515",
"o  c gray9",
"O  c #181818",
"+  c #191919",
"@  c gray10",
"#  c #1B1B1B",
"$  c gray11",
"%  c #1D1D1D",
"&  c #1E1E1E",
"*  c gray12",
"=  c #202020",
"-  c gray13",
";  c #222222",
":  c #232323",
">  c gray14",
",  c #252525",
"<  c gray15",
"1  c #272727",
"2  c #282828",
"3  c gray16",
"4  c #2A2A2A",
"5  c gray17",
"6  c #2C2C2C",
"7  c #2D2D2D",
"8  c gray18",
"9  c #2F2F2F",
"0  c gray19",
"q  c #313131",
"w  c #323232",
"e  c gray20",
"r  c #343434",
"t  c #353535",
"y  c gray21",
"u  c #373737",
"i  c gray22",
"p  c #393939",
"a  c #3A3A3A",
"s  c gray23",
"d  c #3C3C3C",
"f  c gray24",
"g  c #3E3E3E",
"h  c #3F3F3F",
"j  c gray25",
"k  c #414141",
"l  c gray26",
"z  c #434343",
"x  c #444444",
"c  c gray27",
"v  c #464646",
"b  c gray28",
"n  c #484848",
"m  c #494949",
"M  c gray29",
"N  c #4B4B4B",
"B  c #4C4C4C",
"V  c gray30",
"C  c #4E4E4E",
"Z  c gray31",
"A  c #505050",
"S  c #515151",
"D  c gray32",
"F  c #535353",
"G  c gray33",
"H  c #555555",
"J  c #565656",
"K  c gray34",
"L  c #585858",
"P  c gray35",
"I  c #5A5A5A",
"U  c #5B5B5B",
"Y  c gray36",
"T  c #5D5D5D",
"R  c gray37",
"E  c #5F5F5F",
"W  c #606060",
"Q  c #626262",
"!  c #646464",
"~  c gray40",
"^  c #686868",
"/  c DimGray",
"(  c #6A6A6A",
")  c gray42",
"_  c gray43",
"`  c #6F6F6F",
"'  c #717171",
"]  c #777777",
"[  c gray48",
"{  c #7B7B7B",
"}  c #7E7E7E",
"|  c #808080",
" . c #838383",
".. c #868686",
"X. c gray68",
"o. c #BBBBBB",
"O. c gray74",
"+. c gray75",
"@. c #C6C6C6",
"#. c gray78",
"$. c #CDCDCD",
"%. c #D8D8D8",
"&. c gray87",
"*. c gray89",
"=. c None",
/* pixels */
"=.=.=.=.=.=.=.=.=.=.=.=.=.=.=.=.=.=.=.=.=.=.=.=.",
"=.=.=.=.=.=.=.=.=.=.=.=.=.=.=.=.=.=.=.=.=.=.=.=.",
"=.=.=.I W ~ ~ / / _ ' ' .... . .{ { { ] ' =.=.=.",
"=.=.G j t s f f j v v n G Y Y I I G F F I / =.=.",
"=.=.I t t s s f j j v j B I I I I F F F F _ =.=.",
"=.=.I t t o._ j j j v v n Y Y G G G F B B / =.=.",
"=.=.I s s { $.@.{ v n n n I I I G G G B B ~ =.=.",
"=.=.G s t s j X.*.j n n n G I G G F F F B W =.=.",
"=.=.G s s / O.@.{ v v v v B I F F B F B B Y =.=.",
"=.=.I s t O.' f f j v j j j F F F B n n n Y =.=.",
"=.=.I s t t s f f %.&.&.&.f n B B n n n v F =.=.",
"=.=.G s t t t t s f j j j s v n n v v j j F =.=.",
"=.=.G t 6 e t e t t s t s s s j j j j j j n =.=.",
"=.=.B t e 6 e e t t e t e e t j f f f f s j =.=.",
"=.=.v e 4 6 6 e e 6 e e e e e s s s s t t f =.=.",
"=.=.f 4 4 4 6 6 6 6 6 6 6 6 6 e t t e e e e =.=.",
"=.=.e , , , 4 4 4 4 4 4 4 4 4 6 e 6 6 6 6 6 =.=.",
"=.=.6 ; ; , ; , , , 4 , 4 , , , 6 6 4 4 4 4 =.=.",
"=.=., & ; & ; ; , ; ; ; ; ; , ; 4 , , , ; , =.=.",
"=.=.& # # & & & & & ; ; ; & & ; ; ; ; ; ; & =.=.",
"=.=.o o # # # # & & # & & & & & # & & # # o =.=.",
"=.=.. # & ; , 4 6 e t s s t e 6 4 4 ; ; o . =.=.",
"=.=.=.=.                                =.=.=.=.",
"=.=.=.=.=.=.=.=.=.=.=.=.=.=.=.=.=.=.=.=.=.=.=.=."
};
