/* XPM */
static char *locked[] = {
/* columns rows colors chars-per-pixel */
"16 16 4 1",
"  c #000000",
". c #030303",
"X c #040404",
"o c None",
/* pixels */
"oooooooooooooooo",
"oooooooooooooooo",
"oooooo    Xooooo",
"oooooo ooo ooooo",
"oooooo ooo ooooo",
"oooooo ooo ooooo",
"ooooX o   o Xooo",
"oooooooooooooooo",
"oooooooooooooooo",
"oooooooooooooooo",
"oooooooooooooooo",
"oooooooooooooooo",
"oooooooooooooooo",
"oooooooooooooooo",
"oooooooooooooooo",
"oooooooooooooooo"
};
