<svg width="16" height="16" version="1.1" xmlns="http://www.w3.org/2000/svg"><path d="M7.999 0c-.713 1.746-1.142 2.888-1.935 4.582.486.516.967 1.116 1.936 1.793-1.042-.428-1.637-.859-2.168-1.305C4.817 7.187 3.227 10.203 0 16c2.536-1.464 4.302-2.367 6.134-2.711a4.641 4.641 0 0 1-.12-1.086l.003-.081C6.057 10.497 7.12 9.002 8.104 9c.983-.003 1.94 1.804 1.9 3.428-.008.306-.043.6-.103.873 1.812.354 3.597 1.255 6.099 2.699-.493-.908-.934-1.727-1.354-2.507-.663-.513-1.237-1.18-2.646-1.904.969.252 1.546.542 2.086.866C9.811 4.497 9.465 3.44 8 0z" fill="#1793d1" fill-rule="evenodd"/></svg>