<?xml version="1.0" encoding="UTF-8" standalone="no"?>
<!-- Created with Inkscape (http://www.inkscape.org/) -->

<svg
   version="1.1"
   id="svg2"
   width="48"
   height="48"
   viewBox="0 0 48 48"
   sodipodi:docname="color-picker.svg"
   xml:space="preserve"
   inkscape:version="1.2.1 (9c6d41e410, 2022-07-14, custom)"
   xmlns:inkscape="http://www.inkscape.org/namespaces/inkscape"
   xmlns:sodipodi="http://sodipodi.sourceforge.net/DTD/sodipodi-0.dtd"
   xmlns="http://www.w3.org/2000/svg"
   xmlns:svg="http://www.w3.org/2000/svg"><defs
     id="defs6" /><sodipodi:namedview
     id="namedview4"
     pagecolor="#505050"
     bordercolor="#ffffff"
     borderopacity="1"
     inkscape:showpageshadow="0"
     inkscape:pageopacity="0"
     inkscape:pagecheckerboard="1"
     inkscape:deskcolor="#505050"
     showgrid="false"
     inkscape:zoom="7.8223693"
     inkscape:cx="-20.454161"
     inkscape:cy="24.864589"
     inkscape:current-layer="g8"><inkscape:grid
       type="xygrid"
       id="grid356"
       originx="0"
       originy="0" /></sodipodi:namedview><g
     inkscape:groupmode="layer"
     inkscape:label="Image"
     id="g8"><path
       style="fill:#fefefe;stroke-width:0.3"
       d="M 3,46.5 V 45 H 1.5 0 V 40.5 36 H 1.5 3 V 34.5 33 H 4.5 6 V 31.5 30 H 7.5 9 V 28.5 27 H 10.5 12 V 25.5 24 H 13.5 15 V 22.5 21 H 16.5 18 V 19.5 18 H 19.5 21 V 16.5 15 H 19.5 18 V 13.5 12 H 19.5 21 V 10.5 9 h 3 3 V 7.5 6 H 28.5 30 V 4.5 3 H 31.5 33 V 1.5 0 H 37.5 42 V 1.5 3 H 43.5 45 V 4.5 6 H 46.5 48 V 10.5 15 H 46.5 45 V 16.5 18 H 43.5 42 V 19.5 21 H 40.5 39 v 3 3 H 37.5 36 V 28.5 30 H 34.5 33 V 28.5 27 H 31.5 30 V 28.5 30 H 28.5 27 V 31.5 33 H 25.5 24 V 34.5 36 H 22.5 21 V 37.5 39 H 19.5 18 V 40.5 42 H 16.5 15 V 43.5 45 H 13.5 12 V 46.5 48 H 7.5 3 Z m 9,-3 V 42 H 13.5 15 V 40.5 39 H 16.5 18 V 37.5 36 H 19.5 21 V 34.5 33 H 22.5 24 V 31.5 30 H 25.5 27 V 28.5 27 H 28.5 30 V 25.5 24 H 31.5 33 V 25.5 27 H 34.5 36 V 24 21 H 37.5 39 V 19.5 18 H 40.5 42 V 16.5 15 H 43.5 45 V 10.5 6 H 43.5 42 V 4.5 3 H 37.5 33 V 4.5 6 H 31.5 30 V 7.5 9 H 28.5 27 V 10.5 12 H 24 21 V 13.5 15 H 22.5 24 V 16.5 18 H 22.5 21 V 19.5 21 H 19.5 18 V 22.5 24 H 16.5 15 V 25.5 27 H 13.5 12 V 28.5 30 H 10.5 9 V 31.5 33 H 7.5 6 V 34.5 36 H 4.5 3 V 40.5 45 H 7.5 12 Z M 6,39 V 36 H 7.5 9 V 34.5 33 H 10.5 12 V 31.5 30 H 13.5 15 V 28.5 27 H 16.5 18 V 25.5 24 H 19.5 21 V 22.5 21 H 22.5 24 V 19.5 18 H 25.5 27 V 19.5 21 H 28.5 30 V 22.5 24 H 28.5 27 V 25.5 27 H 25.5 24 V 28.5 30 H 22.5 21 V 31.5 33 H 19.5 18 V 34.5 36 H 16.5 15 V 37.5 39 H 13.5 12 V 40.5 42 H 9 6 Z M 33,7.5 V 6 H 34.5 36 V 7.5 9 H 34.5 33 Z"
       id="path398" /><path
       d="M 3,40.5 V 36 H 4.5 6 V 34.5 33 H 7.5 9 V 31.5 30 H 10.5 12 V 28.5 27 H 13.5 15 V 25.5 24 H 16.5 18 V 22.5 21 H 19.5 21 V 19.5 18 H 22.5 24 V 16.5 15 H 22.5 21 V 13.5 12 h 3 3 V 10.5 9 H 28.5 30 V 7.5 6 H 31.5 33 V 4.5 3 H 37.5 42 V 4.5 6 H 43.5 45 V 10.5 15 H 43.5 42 V 16.5 18 H 40.5 39 V 19.5 21 H 37.5 36 v 3 3 H 34.5 33 V 25.5 24 H 31.5 30 V 25.5 27 H 28.5 27 V 28.5 30 H 25.5 24 V 31.5 33 H 22.5 21 V 34.5 36 H 19.5 18 V 37.5 39 H 16.5 15 V 40.5 42 H 13.5 12 V 43.5 45 H 7.5 3 Z m 9,0 V 39 H 13.5 15 V 37.5 36 H 16.5 18 V 34.5 33 H 19.5 21 V 31.5 30 H 22.5 24 V 28.5 27 H 25.5 27 V 25.5 24 H 28.5 30 V 22.5 21 H 28.5 27 V 19.5 18 H 25.5 24 V 19.5 21 H 22.5 21 V 22.5 24 H 19.5 18 V 25.5 27 H 16.5 15 V 28.5 30 H 13.5 12 V 31.5 33 H 10.5 9 V 34.5 36 H 7.5 6 v 3 3 h 3 3 z M 36,7.5 V 6 H 34.5 33 V 7.5 9 h 1.5 1.5 z"
       id="path394"
       style="fill:#000000;stroke-width:0.3" /></g></svg>
