<?xml version="1.0" encoding="UTF-8" standalone="no"?>
<!-- Created with Inkscape (http://www.inkscape.org/) -->

<svg
   version="1.1"
   id="svg2"
   width="22"
   height="22"
   viewBox="0 0 22 22"
   sodipodi:docname="color-picker.svg"
   xml:space="preserve"
   inkscape:version="1.2.1 (9c6d41e410, 2022-07-14, custom)"
   xmlns:inkscape="http://www.inkscape.org/namespaces/inkscape"
   xmlns:sodipodi="http://sodipodi.sourceforge.net/DTD/sodipodi-0.dtd"
   xmlns="http://www.w3.org/2000/svg"
   xmlns:svg="http://www.w3.org/2000/svg"><defs
     id="defs6" /><sodipodi:namedview
     id="namedview4"
     pagecolor="#505050"
     bordercolor="#ffffff"
     borderopacity="1"
     inkscape:showpageshadow="0"
     inkscape:pageopacity="0"
     inkscape:pagecheckerboard="1"
     inkscape:deskcolor="#505050"
     showgrid="false"
     inkscape:zoom="22.125002"
     inkscape:cx="-3.1638416"
     inkscape:cy="13.9887"
     inkscape:current-layer="g8"><inkscape:grid
       type="xygrid"
       id="grid356"
       originx="0"
       originy="0" /></sodipodi:namedview><g
     inkscape:groupmode="layer"
     inkscape:label="Image"
     id="g8"><path
       style="fill:#fefefe;stroke-width:0.1"
       d="M 4,18.5 V 18 H 3.5 3 V 16.5 15 H 3.5 4 V 14.5 14 H 4.5 5 V 13.5 13 H 5.5 6 V 12.5 12 H 6.5 7 V 11.5 11 H 7.5 8 V 10.5 10 H 8.5 9 V 9.5 9 H 9.5 10 V 8.5 8 H 9.5 9 V 7.5 7 H 9.5 10 V 6.5 6 h 1 1 V 5.5 5 H 12.5 13 V 4.5 4 H 13.5 14 V 3.5 3 H 15.5 17 V 3.5 4 H 17.5 18 V 4.5 5 H 18.5 19 V 6.5 8 H 18.5 18 V 8.5 9 H 17.5 17 V 9.5 10 H 16.5 16 v 1 1 H 15.5 15 V 12.5 13 H 14.5 14 V 12.5 12 H 13.5 13 V 12.5 13 H 12.5 12 V 13.5 14 H 11.5 11 V 14.5 15 H 10.5 10 V 15.5 16 H 9.5 9 V 16.5 17 H 8.5 8 V 17.5 18 H 7.5 7 V 18.5 19 H 5.5 4 Z m 3,-1 V 17 H 7.5 8 V 16.5 16 H 8.5 9 V 15.5 15 H 9.5 10 V 14.5 14 H 10.5 11 V 13.5 13 H 11.5 12 V 12.5 12 H 12.5 13 V 11.5 11 H 13.5 14 V 11.5 12 H 14.5 15 V 11 10 H 15.5 16 V 9.5 9 H 16.5 17 V 8.5 8 H 17.5 18 V 6.5 5 H 17.5 17 V 4.5 4 H 15.5 14 V 4.5 5 H 13.5 13 V 5.5 6 H 12.5 12 V 6.5 7 H 11 10 V 7.5 8 H 10.5 11 V 8.5 9 H 10.5 10 V 9.5 10 H 9.5 9 V 10.5 11 H 8.5 8 V 11.5 12 H 7.5 7 V 12.5 13 H 6.5 6 V 13.5 14 H 5.5 5 V 14.5 15 H 4.5 4 V 16.5 18 H 5.5 7 Z M 5,16 V 15 H 5.5 6 V 14.5 14 H 6.5 7 V 13.5 13 H 7.5 8 V 12.5 12 H 8.5 9 V 11.5 11 H 9.5 10 V 10.5 10 H 10.5 11 V 9.5 9 H 11.5 12 V 9.5 10 H 12.5 13 V 10.5 11 H 12.5 12 V 11.5 12 H 11.5 11 V 12.5 13 H 10.5 10 V 13.5 14 H 9.5 9 V 14.5 15 H 8.5 8 V 15.5 16 H 7.5 7 V 16.5 17 H 6 5 Z M 14,5.5 V 5 H 14.5 15 V 5.5 6 H 14.5 14 Z"
       id="path398" /><path
       d="M 4,16.5 V 15 H 4.5 5 V 14.5 14 H 5.5 6 V 13.5 13 H 6.5 7 V 12.5 12 H 7.5 8 V 11.5 11 H 8.5 9 V 10.5 10 H 9.5 10 V 9.5 9 H 10.5 11 V 8.5 8 H 10.5 10 V 7.5 7 h 1 1 V 6.5 6 H 12.5 13 V 5.5 5 H 13.5 14 V 4.5 4 H 15.5 17 V 4.5 5 H 17.5 18 V 6.5 8 H 17.5 17 V 8.5 9 H 16.5 16 V 9.5 10 H 15.5 15 v 1 1 H 14.5 14 V 11.5 11 H 13.5 13 V 11.5 12 H 12.5 12 V 12.5 13 H 11.5 11 V 13.5 14 H 10.5 10 V 14.5 15 H 9.5 9 V 15.5 16 H 8.5 8 V 16.5 17 H 7.5 7 V 17.5 18 H 5.5 4 Z m 3,0 V 16 H 7.5 8 V 15.5 15 H 8.5 9 V 14.5 14 H 9.5 10 V 13.5 13 H 10.5 11 V 12.5 12 H 11.5 12 V 11.5 11 H 12.5 13 V 10.5 10 H 12.5 12 V 9.5 9 H 11.5 11 V 9.5 10 H 10.5 10 V 10.5 11 H 9.5 9 V 11.5 12 H 8.5 8 V 12.5 13 H 7.5 7 V 13.5 14 H 6.5 6 V 14.5 15 H 5.5 5 v 1 1 h 1 1 z m 8,-11 V 5 H 14.5 14 V 5.5 6 h 0.5 0.5 z"
       id="path394"
       style="fill:#000000;stroke-width:0.1" /></g></svg>
